<svg xmlns="http://www.w3.org/2000/svg" xmlns:svg="http://www.w3.org/2000/svg" xmlns:xlink="http://www.w3.org/1999/xlink" id="svg278" width="209.049" height="80.95" version="1.1" viewBox="0 0 209.049 80.95"><defs id="defs263"><style id="style244">.cls-3{fill:#a0a8d4}</style><linearGradient id="linear-gradient" x1="41.95" x2="12.57" y1="2.57" y2="34.42" gradientUnits="userSpaceOnUse"><stop id="stop246" offset=".58" stop-color="#a0a8d4"/><stop id="stop248" offset=".73" stop-color="#8791c7"/><stop id="stop250" offset=".91" stop-color="#6470b4"/></linearGradient><linearGradient id="linear-gradient-2" x1="42.57" x2="71.96" y1="81.66" y2="49.81" xlink:href="#linear-gradient"/><linearGradient id="linear-gradient-3" x1="42.26" x2="42.26" y1="1.24" y2="82.84" gradientUnits="userSpaceOnUse"><stop id="stop254" offset="0" stop-color="#513eff"/><stop id="stop256" offset=".18" stop-color="#5157ff"/><stop id="stop258" offset=".57" stop-color="#5298ff"/><stop id="stop260" offset="1" stop-color="#52e5ff"/></linearGradient><linearGradient id="linearGradient390" x1="41.95" x2="12.57" y1="2.57" y2="34.42" gradientUnits="userSpaceOnUse" xlink:href="#linear-gradient"/></defs><g style="isolation:isolate" id="g276" transform="translate(0.04493994)"><g id="Layer_1" data-name="Layer 1"><path id="path265" fill="url(#linear-gradient)" d="m 15.28,34.39 c 0.8,1.71 2.78,5.09 2.78,5.09 L 40.95,1.64 18.61,17.24 a 9.75,9.75 0 0 0 -3.18,3.5 16.19,16.19 0 0 0 -0.15,13.65 z" transform="translate(-6,-1.64)" style="fill:url(#linearGradient390)"/><path id="path267" d="m 6.21,46.85 a 25.47,25.47 0 0 0 10,18.51 l 24.71,17.23 c 0,0 -15.46,-22.28 -28.5,-44.45 a 22.39,22.39 0 0 1 -2.62,-7.56 12.1,12.1 0 0 1 0,-3.63 c -0.34,0.63 -1,1.92 -1,1.92 a 29.35,29.35 0 0 0 -2.67,8.55 52.28,52.28 0 0 0 0.08,9.43 z" class="cls-3" transform="translate(-6,-1.64)"/><path id="path269" fill="url(#linear-gradient-2)" d="m 69.25,49.84 c -0.8,-1.71 -2.78,-5.09 -2.78,-5.09 L 43.58,82.59 65.92,67 a 9.75,9.75 0 0 0 3.18,-3.5 16.19,16.19 0 0 0 0.15,-13.66 z" transform="translate(-6,-1.64)" style="fill:url(#linear-gradient-2)"/><path id="path271" d="m 78.32,37.38 a 25.47,25.47 0 0 0 -10,-18.51 L 43.61,1.64 c 0,0 15.45,22.28 28.5,44.45 a 22.39,22.39 0 0 1 2.61,7.56 12.1,12.1 0 0 1 0,3.63 c 0.34,-0.63 1,-1.92 1,-1.92 a 29.35,29.35 0 0 0 2.67,-8.55 52.28,52.28 0 0 0 -0.07,-9.43 z" class="cls-3" transform="translate(-6,-1.64)"/><path d="m 15.43,20.74 a 9.75,9.75 0 0 1 3.18,-3.5 L 40.95,1.64 18.06,39.49 c 0,0 -2,-3.38 -2.78,-5.09 A 16.19,16.19 0 0 1 15.43,20.74 Z M 6.21,46.85 a 25.47,25.47 0 0 0 10,18.51 l 24.71,17.23 c 0,0 -15.46,-22.28 -28.5,-44.45 a 22.39,22.39 0 0 1 -2.62,-7.56 12.1,12.1 0 0 1 0,-3.63 c -0.34,0.63 -1,1.92 -1,1.92 a 29.35,29.35 0 0 0 -2.67,8.55 52.28,52.28 0 0 0 0.08,9.43 z m 63,3 c -0.8,-1.71 -2.78,-5.09 -2.78,-5.09 L 43.58,82.59 65.92,67 a 9.75,9.75 0 0 0 3.18,-3.5 16.19,16.19 0 0 0 0.15,-13.66 z m 9.07,-12.46 a 25.47,25.47 0 0 0 -10,-18.51 L 43.61,1.64 c 0,0 15.45,22.28 28.5,44.45 a 22.39,22.39 0 0 1 2.61,7.56 12.1,12.1 0 0 1 0,3.63 c 0.34,-0.63 1,-1.92 1,-1.92 a 29.35,29.35 0 0 0 2.67,-8.55 52.28,52.28 0 0 0 -0.07,-9.43 z" transform="translate(-6,-1.64)" style="mix-blend-mode:color;fill:url(#linear-gradient-3)" id="path273" fill="url(#linear-gradient-3)"/></g></g><path id="path189" d="m 95.428049,60.858811 v -41.88 a 0.22,0.22 0 0 1 0.21,-0.2 h 26.610001 a 0.22,0.22 0 0 1 0.22,0.22 v 5.33 a 0.22,0.22 0 0 1 -0.22,0.22 h -20.4 v 12.34 h 17.35 a 0.22,0.22 0 0 1 0.22,0.22 v 5.27 a 0.22,0.22 0 0 1 -0.22,0.22 h -17.35 v 12.71 h 20.4 a 0.22,0.22 0 0 1 0.22,0.22 v 5.33 a 0.22,0.22 0 0 1 -0.22,0.22 H 95.638049 a 0.22,0.22 0 0 1 -0.21,-0.22 z m 66.170001,0.11 -19.47,-29.65 v 29.53 a 0.22,0.22 0 0 1 -0.22,0.22 h -6 a 0.22,0.22 0 0 1 -0.22,-0.22 v -41.84 a 0.22,0.22 0 0 1 0.22,-0.22 h 5.55 a 0.22,0.22 0 0 1 0.18,0.1 l 19.49,29.59 v -29.47 a 0.22,0.22 0 0 1 0.22,-0.22 h 6 a 0.22,0.22 0 0 1 0.22,0.22 v 41.84 a 0.22,0.22 0 0 1 -0.22,0.22 h -5.57 a 0.22,0.22 0 0 1 -0.18,-0.1 z m 25.6,-8.02 v 2 a 40.79,40.79 0 0 0 7.82,0.92 40.27,40.27 0 0 0 7.73,-0.91 v -9.48 l -21.78,-7.61 a 0.22,0.22 0 0 1 -0.14,-0.2 v -17.41 a 0.19,0.19 0 0 1 0.14,-0.2 54.34,54.34 0 0 1 13.94,-2 55.07,55.07 0 0 1 14,2 0.19,0.19 0 0 1 0.14,0.2 v 6.57 a 0.22,0.22 0 0 1 -0.22,0.22 h -5.89 a 0.22,0.22 0 0 1 -0.22,-0.22 v -2 a 40.85,40.85 0 0 0 -7.82,-0.91 40.5,40.5 0 0 0 -7.73,0.9 l 0.03,8.96 21.7,7.6 a 0.22,0.22 0 0 1 0.14,0.2 v 17.95 a 0.19,0.19 0 0 1 -0.14,0.2 54.36,54.36 0 0 1 -13.94,2 55.11,55.11 0 0 1 -14,-2 0.19,0.19 0 0 1 -0.14,-0.2 v -6.58 a 0.22,0.22 0 0 1 0.22,-0.22 h 5.88 a 0.22,0.22 0 0 1 0.28,0.22 z" class="cls-1" style="fill:#fff"/></svg>