<svg xmlns="http://www.w3.org/2000/svg" xmlns:svg="http://www.w3.org/2000/svg" xmlns:xlink="http://www.w3.org/1999/xlink" id="svg278" width="254.968" height="98.731" version="1.1" viewBox="0 0 254.968 98.731"><defs id="defs263"><style id="style244">.cls-3{fill:#a0a8d4}</style><linearGradient id="linear-gradient" x1="41.95" x2="12.57" y1="2.57" y2="34.42" gradientUnits="userSpaceOnUse"><stop id="stop246" offset=".58" stop-color="#a0a8d4"/><stop id="stop248" offset=".73" stop-color="#8791c7"/><stop id="stop250" offset=".91" stop-color="#6470b4"/></linearGradient><linearGradient id="linear-gradient-2" x1="42.57" x2="71.96" y1="81.66" y2="49.81" xlink:href="#linear-gradient"/><linearGradient id="linear-gradient-3" x1="42.26" x2="42.26" y1="1.24" y2="82.84" gradientUnits="userSpaceOnUse"><stop id="stop254" offset="0" stop-color="#513eff"/><stop id="stop256" offset=".18" stop-color="#5157ff"/><stop id="stop258" offset=".57" stop-color="#5298ff"/><stop id="stop260" offset="1" stop-color="#52e5ff"/></linearGradient><linearGradient id="linearGradient390" x1="41.95" x2="12.57" y1="2.57" y2="34.42" gradientUnits="userSpaceOnUse" xlink:href="#linear-gradient"/></defs><g style="isolation:isolate" id="g276" transform="matrix(1.2196558,0,0,1.2196558,0.05481126,0)"><g id="Layer_1" data-name="Layer 1"><path id="path265" fill="url(#linear-gradient)" d="m 15.28,34.39 c 0.8,1.71 2.78,5.09 2.78,5.09 L 40.95,1.64 18.61,17.24 a 9.75,9.75 0 0 0 -3.18,3.5 16.19,16.19 0 0 0 -0.15,13.65 z" transform="translate(-6,-1.64)" style="fill:url(#linearGradient390)"/><path id="path267" d="m 6.21,46.85 a 25.47,25.47 0 0 0 10,18.51 l 24.71,17.23 c 0,0 -15.46,-22.28 -28.5,-44.45 a 22.39,22.39 0 0 1 -2.62,-7.56 12.1,12.1 0 0 1 0,-3.63 c -0.34,0.63 -1,1.92 -1,1.92 a 29.35,29.35 0 0 0 -2.67,8.55 52.28,52.28 0 0 0 0.08,9.43 z" class="cls-3" transform="translate(-6,-1.64)"/><path id="path269" fill="url(#linear-gradient-2)" d="m 69.25,49.84 c -0.8,-1.71 -2.78,-5.09 -2.78,-5.09 L 43.58,82.59 65.92,67 a 9.75,9.75 0 0 0 3.18,-3.5 16.19,16.19 0 0 0 0.15,-13.66 z" transform="translate(-6,-1.64)" style="fill:url(#linear-gradient-2)"/><path id="path271" d="m 78.32,37.38 a 25.47,25.47 0 0 0 -10,-18.51 L 43.61,1.64 c 0,0 15.45,22.28 28.5,44.45 a 22.39,22.39 0 0 1 2.61,7.56 12.1,12.1 0 0 1 0,3.63 c 0.34,-0.63 1,-1.92 1,-1.92 a 29.35,29.35 0 0 0 2.67,-8.55 52.28,52.28 0 0 0 -0.07,-9.43 z" class="cls-3" transform="translate(-6,-1.64)"/><path d="m 15.43,20.74 a 9.75,9.75 0 0 1 3.18,-3.5 L 40.95,1.64 18.06,39.49 c 0,0 -2,-3.38 -2.78,-5.09 A 16.19,16.19 0 0 1 15.43,20.74 Z M 6.21,46.85 a 25.47,25.47 0 0 0 10,18.51 l 24.71,17.23 c 0,0 -15.46,-22.28 -28.5,-44.45 a 22.39,22.39 0 0 1 -2.62,-7.56 12.1,12.1 0 0 1 0,-3.63 c -0.34,0.63 -1,1.92 -1,1.92 a 29.35,29.35 0 0 0 -2.67,8.55 52.28,52.28 0 0 0 0.08,9.43 z m 63,3 c -0.8,-1.71 -2.78,-5.09 -2.78,-5.09 L 43.58,82.59 65.92,67 a 9.75,9.75 0 0 0 3.18,-3.5 16.19,16.19 0 0 0 0.15,-13.66 z m 9.07,-12.46 a 25.47,25.47 0 0 0 -10,-18.51 L 43.61,1.64 c 0,0 15.45,22.28 28.5,44.45 a 22.39,22.39 0 0 1 2.61,7.56 12.1,12.1 0 0 1 0,3.63 c 0.34,-0.63 1,-1.92 1,-1.92 a 29.35,29.35 0 0 0 2.67,-8.55 52.28,52.28 0 0 0 -0.07,-9.43 z" transform="translate(-6,-1.64)" style="mix-blend-mode:color;fill:url(#linear-gradient-3)" id="path273" fill="url(#linear-gradient-3)"/></g></g><path id="path189" d="M 116.38938,74.226803 V 23.147617 a 0.26832428,0.26832428 0 0 1 0.25612,-0.243931 h 32.45505 a 0.26832428,0.26832428 0 0 1 0.26832,0.268324 v 6.500766 a 0.26832428,0.26832428 0 0 1 -0.26832,0.268324 h -24.88098 v 15.050553 h 21.16102 a 0.26832428,0.26832428 0 0 1 0.26833,0.268324 v 6.427586 a 0.26832428,0.26832428 0 0 1 -0.26833,0.268324 h -21.16102 v 15.501826 h 24.88098 a 0.26832428,0.26832428 0 0 1 0.26832,0.268324 v 6.500766 a 0.26832428,0.26832428 0 0 1 -0.26832,0.268324 H 116.6455 a 0.26832428,0.26832428 0 0 1 -0.25612,-0.268324 z M 197.094,74.360965 173.34731,38.19817 v 36.016436 a 0.26832428,0.26832428 0 0 1 -0.26833,0.268324 h -7.31793 a 0.26832428,0.26832428 0 0 1 -0.26833,-0.268324 V 23.184207 a 0.26832428,0.26832428 0 0 1 0.26833,-0.268325 h 6.76909 a 0.26832428,0.26832428 0 0 1 0.21953,0.121966 l 23.7711,36.089616 V 23.184207 a 0.26832428,0.26832428 0 0 1 0.26832,-0.268325 h 7.31793 a 0.26832428,0.26832428 0 0 1 0.26833,0.268325 v 51.030399 a 0.26832428,0.26832428 0 0 1 -0.26833,0.268324 h -6.79348 A 0.26832428,0.26832428 0 0 1 197.094,74.360965 Z m 31.22319,-9.78164 v 2.439312 a 49.749761,49.749761 0 0 0 9.53771,1.122083 49.11554,49.11554 0 0 0 9.42794,-1.109887 V 55.468496 l -26.5641,-9.281581 a 0.26832428,0.26832428 0 0 1 -0.17075,-0.243931 V 24.708776 a 0.2317346,0.2317346 0 0 1 0.17075,-0.243931 66.276097,66.276097 0 0 1 17.002,-2.439311 67.166446,67.166446 0 0 1 17.07518,2.439311 0.2317346,0.2317346 0 0 1 0.17075,0.243931 v 8.013139 a 0.26832428,0.26832428 0 0 1 -0.26832,0.268324 h -7.18377 a 0.26832428,0.26832428 0 0 1 -0.26833,-0.268324 v -2.439311 a 49.82294,49.82294 0 0 0 -9.53771,-1.109887 49.39606,49.39606 0 0 0 -9.42794,1.09769 l 0.0366,10.928116 26.46653,9.269384 a 0.26832428,0.26832428 0 0 1 0.17076,0.243931 V 72.60466 a 0.2317346,0.2317346 0 0 1 -0.17076,0.243931 66.30049,66.30049 0 0 1 -17.002,2.439312 67.215232,67.215232 0 0 1 -17.07518,-2.439312 0.2317346,0.2317346 0 0 1 -0.17075,-0.243931 v -8.025335 a 0.26832428,0.26832428 0 0 1 0.26832,-0.268324 h 7.17158 a 0.26832428,0.26832428 0 0 1 0.3415,0.268324 z" class="cls-1" style="fill:#000;stroke-width:1.21966"/></svg>