<svg xmlns="http://www.w3.org/2000/svg" xmlns:xlink="http://www.w3.org/1999/xlink" id="Capa_1" x="0" y="0" version="1.1" viewBox="0 0 512 512" style="enable-background:new 0 0 512 512" xml:space="preserve"><g><polygon style="fill:#a4c2f7" points="392.533 98.133 179.2 98.133 179.2 473.6 503.467 473.6 503.467 98.133"/><polygon style="fill:#fff" points="221.867 98.133 179.2 38.4 8.533 38.4 8.533 98.133 8.533 473.6 332.8 473.6 332.8 98.133"/><polygon style="fill:#e3e7f2" points="221.867 98.133 179.2 38.4 34.133 38.4 34.133 98.133 34.133 473.6 477.867 473.6 477.867 98.133"/><linearGradient id="SVGID_1_" x1="-48.606" x2="-47.79" y1="651.788" y2="650.497" gradientTransform="matrix(162.1333 0 0 -102.4 8194.2002 67056.7422)" gradientUnits="userSpaceOnUse"><stop offset="0" style="stop-color:#d4e1f4"/><stop offset=".172" style="stop-color:#d4e1f4"/><stop offset=".2" style="stop-color:#d4e1f4"/><stop offset=".2" style="stop-color:#dae4f4"/><stop offset=".201" style="stop-color:#ebebf4"/><stop offset=".201" style="stop-color:#f6f1f4"/><stop offset=".202" style="stop-color:#fdf4f4"/><stop offset=".205" style="stop-color:#fff5f4"/><stop offset=".252" style="stop-color:#fff5f4"/><stop offset=".26" style="stop-color:#fff5f4"/><stop offset=".26" style="stop-color:#d4e1f4"/><stop offset=".397" style="stop-color:#d4e1f4"/><stop offset=".42" style="stop-color:#d4e1f4"/><stop offset=".42" style="stop-color:#dae4f4"/><stop offset=".421" style="stop-color:#ebebf4"/><stop offset=".421" style="stop-color:#f6f1f4"/><stop offset=".422" style="stop-color:#fdf4f4"/><stop offset=".425" style="stop-color:#fff5f4"/><stop offset=".489" style="stop-color:#fff5f4"/><stop offset=".5" style="stop-color:#fff5f4"/><stop offset=".5" style="stop-color:#f9f2f4"/><stop offset=".5" style="stop-color:#e8ebf4"/><stop offset=".5" style="stop-color:#dde5f4"/><stop offset=".5" style="stop-color:#d6e2f4"/><stop offset=".501" style="stop-color:#d4e1f4"/><stop offset=".706" style="stop-color:#d4e1f4"/><stop offset=".74" style="stop-color:#d4e1f4"/><stop offset=".741" style="stop-color:#fff5f4"/><stop offset=".835" style="stop-color:#fff5f4"/><stop offset=".85" style="stop-color:#fff5f4"/><stop offset=".851" style="stop-color:#d4e1f4"/></linearGradient><polygon style="fill:url(#SVGID_1_)" points="435.2 328.533 298.667 328.533 298.667 430.933 435.2 430.933 460.8 430.933 460.8 328.533"/><polygon style="fill:#e3e7f2" points="477.867 157.867 260.651 157.867 260.651 157.602 221.867 98.133 477.867 98.133"/><g><path style="fill:#428dff" d="M503.467,482.133H8.533c-2.263,0.001-4.434-0.898-6.035-2.499c-1.6-1.6-2.499-3.771-2.499-6.035 V38.4c-0.001-2.263,0.898-4.434,2.499-6.035c1.6-1.6,3.771-2.499,6.035-2.499H179.2c2.757,0.002,5.343,1.333,6.946,3.575 L226.258,89.6h277.208c2.263-0.001,4.434,0.898,6.035,2.499c1.6,1.6,2.499,3.771,2.499,6.035V473.6 c0.001,2.263-0.898,4.434-2.499,6.035C507.901,481.235,505.73,482.134,503.467,482.133L503.467,482.133z M17.067,465.067h477.867 v-358.4H221.867c-2.757-0.002-5.343-1.333-6.946-3.575l-40.112-56.158H17.067V465.067z"/><path style="fill:#428dff" d="M460.8,439.467H298.667c-2.263,0.001-4.434-0.898-6.035-2.499c-1.6-1.6-2.499-3.771-2.499-6.035 v-102.4c-0.001-2.263,0.898-4.434,2.499-6.035c1.6-1.6,3.771-2.499,6.035-2.499H460.8c2.263-0.001,4.434,0.898,6.035,2.499 c1.6,1.6,2.499,3.771,2.499,6.035v102.4c0.001,2.263-0.898,4.434-2.499,6.035C465.234,438.568,463.063,439.467,460.8,439.467 L460.8,439.467z M307.2,422.4h145.067v-85.333H307.2V422.4z"/><path style="fill:#428dff" d="M366.933,371.2H332.8c-4.713,0-8.533-3.82-8.533-8.533s3.82-8.533,8.533-8.533h34.133 c4.713,0,8.533,3.82,8.533,8.533S371.646,371.2,366.933,371.2z"/><path style="fill:#428dff" d="M409.6,371.2h-8.533c-4.713,0-8.533-3.82-8.533-8.533s3.82-8.533,8.533-8.533h8.533 c4.713,0,8.533,3.82,8.533,8.533S414.313,371.2,409.6,371.2z"/><path style="fill:#428dff" d="M426.667,405.333H332.8c-4.713,0-8.533-3.82-8.533-8.533s3.82-8.533,8.533-8.533h93.867 c4.713,0,8.533,3.82,8.533,8.533S431.38,405.333,426.667,405.333z"/><path style="fill:#428dff" d="M503.467,166.4H264.533c-3.336-0.001-6.365-1.944-7.758-4.975l-41.842-58.317 c-1.866-2.6-2.121-6.025-0.66-8.872c1.461-2.847,4.393-4.637,7.593-4.636h281.6c2.263-0.001,4.434,0.898,6.035,2.499 c1.6,1.6,2.499,3.771,2.499,6.035v59.733c0.001,2.263-0.898,4.434-2.499,6.035C507.901,165.502,505.73,166.401,503.467,166.4z M269.104,149.333h225.829v-42.667H238.492L269.104,149.333z"/></g></g></svg>