<svg xmlns="http://www.w3.org/2000/svg" xmlns:xlink="http://www.w3.org/1999/xlink" id="Capa_1" x="0" y="0" version="1.1" viewBox="0 0 512 512" style="enable-background:new 0 0 512 512" xml:space="preserve"><g><g><polygon style="fill:#a4c2f7" points="503.467 102.4 247.467 102.4 204.8 42.667 34.133 42.667 34.133 76.8 179.2 76.8 221.867 136.533 503.467 136.533"/><polygon style="fill:#a4c2f7" points="503.467 68.267 273.067 68.267 230.4 8.533 59.733 8.533 59.733 42.667 204.8 42.667 247.467 102.4 503.467 102.4"/><polygon style="fill:#a4c2f7" points="392.533 135.364 179.2 135.364 179.2 503.467 503.467 503.467 503.467 135.364"/></g><polygon style="fill:#fff" points="221.867 135.364 179.2 76.8 8.533 76.8 8.533 135.364 8.533 503.467 332.8 503.467 332.8 135.364"/><g><polygon style="fill:#e3e7f2" points="221.867 135.364 179.2 76.8 34.133 76.8 34.133 135.364 34.133 503.467 477.867 503.467 477.867 135.364"/><polygon style="fill:#e3e7f2" points="477.867 196.267 260.651 196.267 260.651 196.267 221.867 136.533 477.867 136.533"/></g><linearGradient id="SVGID_1_" x1="-48.702" x2="-47.856" y1="652.206" y2="650.984" gradientTransform="matrix(221.8667 0 0 -153.6 11061.4004 100469.0078)" gradientUnits="userSpaceOnUse"><stop offset="0" style="stop-color:#d4e1f4"/><stop offset=".172" style="stop-color:#d4e1f4"/><stop offset=".2" style="stop-color:#d4e1f4"/><stop offset=".2" style="stop-color:#dae4f4"/><stop offset=".201" style="stop-color:#ebebf4"/><stop offset=".201" style="stop-color:#f6f1f4"/><stop offset=".202" style="stop-color:#fdf4f4"/><stop offset=".205" style="stop-color:#fff5f4"/><stop offset=".252" style="stop-color:#fff5f4"/><stop offset=".26" style="stop-color:#fff5f4"/><stop offset=".26" style="stop-color:#d4e1f4"/><stop offset=".397" style="stop-color:#d4e1f4"/><stop offset=".42" style="stop-color:#d4e1f4"/><stop offset=".42" style="stop-color:#dae4f4"/><stop offset=".421" style="stop-color:#ebebf4"/><stop offset=".421" style="stop-color:#f6f1f4"/><stop offset=".422" style="stop-color:#fdf4f4"/><stop offset=".425" style="stop-color:#fff5f4"/><stop offset=".489" style="stop-color:#fff5f4"/><stop offset=".5" style="stop-color:#fff5f4"/><stop offset=".5" style="stop-color:#f9f2f4"/><stop offset=".5" style="stop-color:#e8ebf4"/><stop offset=".5" style="stop-color:#dde5f4"/><stop offset=".5" style="stop-color:#d6e2f4"/><stop offset=".501" style="stop-color:#d4e1f4"/><stop offset=".706" style="stop-color:#d4e1f4"/><stop offset=".74" style="stop-color:#d4e1f4"/><stop offset=".741" style="stop-color:#fff5f4"/><stop offset=".835" style="stop-color:#fff5f4"/><stop offset=".85" style="stop-color:#fff5f4"/><stop offset=".851" style="stop-color:#d4e1f4"/></linearGradient><polygon style="fill:url(#SVGID_1_)" points="435.2 307.2 238.933 307.2 238.933 460.8 435.2 460.8 460.8 460.8 460.8 307.2"/><g><path style="fill:#428dff" d="M503.467,512H8.533c-2.264,0.001-4.435-0.897-6.035-2.498c-1.601-1.601-2.499-3.772-2.498-6.035 V76.8c-0.001-2.264,0.897-4.435,2.498-6.035c1.601-1.601,3.772-2.499,6.035-2.498H179.2c2.756,0,5.341,1.332,6.942,3.575 L226.258,128h277.208c2.264-0.001,4.435,0.897,6.035,2.498c1.601,1.601,2.499,3.772,2.498,6.035v366.933 c0.001,2.264-0.897,4.435-2.498,6.035C507.901,511.103,505.73,512.001,503.467,512z M17.067,494.933h477.867V145.067H221.867 c-2.756,0-5.341-1.332-6.942-3.575l-40.117-56.158H17.067V494.933z"/><path style="fill:#428dff" d="M264.542,204.533c-2.757,0.003-5.345-1.326-6.95-3.567l-85.333-119.2 c-2.743-3.834-1.859-9.166,1.975-11.909c3.834-2.743,9.166-1.859,11.909,1.975l85.333,119.2c1.861,2.6,2.113,6.021,0.652,8.865 C270.667,202.742,267.739,204.531,264.542,204.533L264.542,204.533z"/><path style="fill:#428dff" d="M503.467,204.8H264.533c-4.713,0-8.533-3.821-8.533-8.533s3.821-8.533,8.533-8.533h238.933 c4.713,0,8.533,3.821,8.533,8.533S508.18,204.8,503.467,204.8z"/><path style="fill:#428dff" d="M494.933,512H17.067c-4.713,0-8.533-3.82-8.533-8.533s3.821-8.533,8.533-8.533h477.867 c4.713,0,8.533,3.821,8.533,8.533S499.646,512,494.933,512z"/><path style="fill:#428dff" d="M503.467,145.067h-281.6c-2.756,0-5.341-1.332-6.942-3.575l-40.117-56.158H34.133 c-2.264,0.001-4.435-0.897-6.035-2.498c-1.601-1.601-2.499-3.772-2.498-6.035V42.667c-0.001-2.264,0.897-4.435,2.498-6.035 c1.601-1.601,3.772-2.499,6.035-2.498H204.8c2.756,0,5.341,1.332,6.942,3.575l40.117,56.158h251.608 c2.264-0.001,4.435,0.897,6.035,2.498c1.601,1.601,2.499,3.772,2.498,6.035v34.133c0.001,2.264-0.897,4.435-2.498,6.035 C507.901,144.169,505.73,145.068,503.467,145.067z M226.258,128h268.675v-17.067H247.467c-2.756,0-5.341-1.332-6.942-3.575 L200.408,51.2H42.667v17.067H179.2c2.756,0,5.341,1.332,6.942,3.575L226.258,128z"/><path style="fill:#428dff" d="M503.467,110.933h-256c-2.756,0-5.341-1.332-6.942-3.575L200.408,51.2H59.733 c-2.264,0.001-4.435-0.897-6.035-2.498s-2.499-3.772-2.498-6.035V8.533c-0.001-2.264,0.897-4.435,2.498-6.035 S57.47-0.001,59.733,0H230.4c2.756,0,5.341,1.332,6.942,3.575l40.117,56.158h226.008c2.264-0.001,4.435,0.897,6.035,2.498 c1.601,1.601,2.499,3.772,2.498,6.035V102.4c0.001,2.264-0.897,4.435-2.498,6.035C507.901,110.036,505.73,110.935,503.467,110.933 z M251.858,93.867h243.075V76.8H273.067c-2.756,0-5.341-1.332-6.942-3.575l-40.117-56.158H68.267v17.067H204.8 c2.756,0,5.341,1.332,6.942,3.575L251.858,93.867z"/><path style="fill:#428dff" d="M460.8,469.333H238.933c-2.264,0.001-4.435-0.897-6.035-2.498 c-1.601-1.601-2.499-3.772-2.498-6.035V307.2c-0.001-2.264,0.897-4.435,2.498-6.035c1.601-1.601,3.772-2.499,6.035-2.498H460.8 c2.264-0.001,4.435,0.897,6.035,2.498c1.601,1.601,2.499,3.772,2.498,6.035v153.6c0.001,2.264-0.897,4.435-2.498,6.035 C465.235,468.436,463.064,469.335,460.8,469.333L460.8,469.333z M247.467,452.267h204.8V315.733h-204.8V452.267z"/><path style="fill:#428dff" d="M366.933,358.4H281.6c-4.713,0-8.533-3.821-8.533-8.533c0-4.713,3.82-8.533,8.533-8.533h85.333 c4.713,0,8.533,3.821,8.533,8.533C375.467,354.579,371.646,358.4,366.933,358.4z"/><path style="fill:#428dff" d="M418.133,392.533H281.6c-4.713,0-8.533-3.82-8.533-8.533s3.82-8.533,8.533-8.533h136.533 c4.713,0,8.533,3.821,8.533,8.533S422.846,392.533,418.133,392.533z"/><path style="fill:#428dff" d="M418.133,426.667H281.6c-4.713,0-8.533-3.82-8.533-8.533s3.82-8.533,8.533-8.533h136.533 c4.713,0,8.533,3.82,8.533,8.533S422.846,426.667,418.133,426.667z"/></g></g></svg>