<svg xmlns="http://www.w3.org/2000/svg" xmlns:xlink="http://www.w3.org/1999/xlink" id="Capa_1" x="0" y="0" version="1.1" viewBox="0 0 512 512" style="enable-background:new 0 0 512 512" xml:space="preserve"><g><polygon style="fill:#a4c2f7" points="328.533 25.6 294.4 25.6 294.4 51.2 217.6 51.2 217.6 25.6 183.467 25.6 72.533 25.6 72.533 503.467 456.533 503.467 456.533 25.6"/><rect x="217.6" y="8.533" style="fill:#7facfa" width="76.8" height="42.667"/><polygon style="fill:#a4c2f7" points="294.4 25.6 294.4 51.2 217.6 51.2 217.6 25.6 157.867 25.6 157.867 76.8 354.133 76.8 354.133 25.6"/><linearGradient id="SVGID_1_" x1="-48.915" x2="-47.805" y1="652.629" y2="651.719" gradientTransform="matrix(349.8667 0 0 -426.6667 17175.5273 278525.5625)" gradientUnits="userSpaceOnUse"><stop offset="0" style="stop-color:#d4e1f4"/><stop offset=".172" style="stop-color:#d4e1f4"/><stop offset=".2" style="stop-color:#d4e1f4"/><stop offset=".2" style="stop-color:#dae4f4"/><stop offset=".201" style="stop-color:#ebebf4"/><stop offset=".201" style="stop-color:#f6f1f4"/><stop offset=".202" style="stop-color:#fdf4f4"/><stop offset=".205" style="stop-color:#fff5f4"/><stop offset=".252" style="stop-color:#fff5f4"/><stop offset=".26" style="stop-color:#fff5f4"/><stop offset=".26" style="stop-color:#d4e1f4"/><stop offset=".397" style="stop-color:#d4e1f4"/><stop offset=".42" style="stop-color:#d4e1f4"/><stop offset=".42" style="stop-color:#dae4f4"/><stop offset=".421" style="stop-color:#ebebf4"/><stop offset=".421" style="stop-color:#f6f1f4"/><stop offset=".422" style="stop-color:#fdf4f4"/><stop offset=".425" style="stop-color:#fff5f4"/><stop offset=".489" style="stop-color:#fff5f4"/><stop offset=".5" style="stop-color:#fff5f4"/><stop offset=".5" style="stop-color:#f9f2f4"/><stop offset=".5" style="stop-color:#e8ebf4"/><stop offset=".5" style="stop-color:#dde5f4"/><stop offset=".5" style="stop-color:#d6e2f4"/><stop offset=".501" style="stop-color:#d4e1f4"/><stop offset=".706" style="stop-color:#d4e1f4"/><stop offset=".74" style="stop-color:#d4e1f4"/><stop offset=".741" style="stop-color:#fff5f4"/><stop offset=".835" style="stop-color:#fff5f4"/><stop offset=".85" style="stop-color:#fff5f4"/><stop offset=".851" style="stop-color:#d4e1f4"/></linearGradient><polygon style="fill:url(#SVGID_1_)" points="354.133 51.2 354.133 76.8 157.867 76.8 157.867 51.2 81.067 51.2 81.067 477.867 430.933 477.867 430.933 51.2"/><g><path style="fill:#428dff" d="M243.2,145.067H132.267c-4.713,0-8.533-3.821-8.533-8.533s3.821-8.533,8.533-8.533H243.2 c4.713,0,8.533,3.82,8.533,8.533S247.913,145.067,243.2,145.067z"/><path style="fill:#428dff" d="M243.2,409.6H132.267c-4.713,0-8.533-3.821-8.533-8.533s3.821-8.533,8.533-8.533H243.2 c4.713,0,8.533,3.82,8.533,8.533S247.913,409.6,243.2,409.6z"/><path style="fill:#428dff" d="M379.733,196.267H132.267c-4.713,0-8.533-3.821-8.533-8.533c0-4.713,3.821-8.533,8.533-8.533 h247.467c4.713,0,8.533,3.821,8.533,8.533C388.267,192.446,384.446,196.267,379.733,196.267z"/><path style="fill:#428dff" d="M379.733,298.667H132.267c-4.713,0-8.533-3.821-8.533-8.533c0-4.713,3.821-8.533,8.533-8.533 h247.467c4.713,0,8.533,3.821,8.533,8.533C388.267,294.846,384.446,298.667,379.733,298.667z"/><path style="fill:#428dff" d="M379.733,358.4H132.267c-4.713,0-8.533-3.821-8.533-8.533c0-4.713,3.821-8.533,8.533-8.533h247.467 c4.713,0,8.533,3.821,8.533,8.533C388.267,354.579,384.446,358.4,379.733,358.4z"/><path style="fill:#428dff" d="M251.733,247.467H132.267c-4.713,0-8.533-3.82-8.533-8.533s3.821-8.533,8.533-8.533h119.467 c4.713,0,8.533,3.821,8.533,8.533S256.446,247.467,251.733,247.467z"/><path style="fill:#428dff" d="M379.733,247.467H320c-4.713,0-8.533-3.82-8.533-8.533s3.821-8.533,8.533-8.533h59.733 c4.713,0,8.533,3.821,8.533,8.533S384.446,247.467,379.733,247.467z"/><path style="fill:#428dff" d="M285.867,247.467c-2.855,0.03-5.532-1.385-7.115-3.761c-1.584-2.376-1.86-5.39-0.735-8.014 c0.412-1.045,1.02-2.001,1.792-2.817c3.421-3.158,8.695-3.158,12.117,0c0.754,0.829,1.36,1.782,1.792,2.817 c0.911,2.065,0.911,4.418,0,6.483c-0.434,1.034-1.04,1.986-1.792,2.817c-0.849,0.75-1.797,1.381-2.817,1.875 C288.078,247.278,286.976,247.482,285.867,247.467L285.867,247.467z"/><path style="fill:#428dff" d="M294.4,59.733h-76.8c-2.264,0.001-4.435-0.897-6.035-2.498s-2.499-3.772-2.498-6.035V8.533 c-0.001-2.264,0.897-4.435,2.498-6.035S215.336-0.001,217.6,0h76.8c2.264-0.001,4.435,0.897,6.035,2.498s2.499,3.772,2.498,6.035 V51.2c0.001,2.264-0.897,4.435-2.498,6.035S296.664,59.735,294.4,59.733z M226.133,42.667h59.733v-25.6h-59.733V42.667z"/><path style="fill:#428dff" d="M430.933,486.4H81.067c-2.264,0.001-4.435-0.897-6.035-2.498c-1.601-1.601-2.499-3.772-2.498-6.035 V51.2c-0.001-2.264,0.897-4.435,2.498-6.035c1.601-1.601,3.772-2.499,6.035-2.498h76.8c2.264-0.001,4.435,0.897,6.035,2.498 s2.499,3.772,2.498,6.035v17.067h179.2V51.2c-0.001-2.264,0.897-4.435,2.498-6.035c1.601-1.601,3.772-2.499,6.035-2.498h76.8 c2.264-0.001,4.435,0.897,6.035,2.498c1.601,1.601,2.499,3.772,2.498,6.035v426.667c0.001,2.264-0.897,4.435-2.498,6.035 C435.368,485.503,433.197,486.401,430.933,486.4z M89.6,469.333h332.8v-409.6h-59.733V76.8c0.001,2.264-0.897,4.435-2.498,6.035 c-1.601,1.601-3.772,2.499-6.035,2.498H157.867c-2.264,0.001-4.435-0.897-6.035-2.498c-1.601-1.601-2.499-3.772-2.498-6.035 V59.733H89.6V469.333z"/><path style="fill:#428dff" d="M354.133,85.333H157.867c-2.264,0.001-4.435-0.897-6.035-2.498 c-1.601-1.601-2.499-3.772-2.498-6.035V25.6c-0.001-2.264,0.897-4.435,2.498-6.035s3.772-2.499,6.035-2.498H217.6 c2.264-0.001,4.435,0.897,6.035,2.498s2.499,3.772,2.498,6.035v17.067h59.733V25.6c-0.001-2.264,0.897-4.435,2.498-6.035 s3.772-2.499,6.035-2.498h59.733c2.264-0.001,4.435,0.897,6.035,2.498c1.601,1.601,2.499,3.772,2.498,6.035v51.2 c0.001,2.264-0.897,4.435-2.498,6.035C358.568,84.436,356.397,85.335,354.133,85.333L354.133,85.333z M166.4,68.267h179.2V34.133 h-42.667V51.2c0.001,2.264-0.897,4.435-2.498,6.035s-3.772,2.499-6.035,2.498h-76.8c-2.264,0.001-4.435-0.897-6.035-2.498 s-2.499-3.772-2.498-6.035V34.133H166.4V68.267z"/><path style="fill:#428dff" d="M456.533,512H55.467c-2.264,0.001-4.435-0.897-6.035-2.498c-1.601-1.601-2.499-3.772-2.498-6.035 V25.6c-0.001-2.264,0.897-4.435,2.498-6.035s3.772-2.499,6.035-2.498H217.6c2.264-0.001,4.435,0.897,6.035,2.498 s2.499,3.772,2.498,6.035v17.067h59.733V25.6c-0.001-2.264,0.897-4.435,2.498-6.035s3.772-2.499,6.035-2.498h162.133 c2.264-0.001,4.435,0.897,6.035,2.498c1.601,1.601,2.499,3.772,2.498,6.035v477.867c0.001,2.264-0.897,4.435-2.498,6.035 C460.968,511.103,458.797,512.001,456.533,512z M64,494.933h384v-460.8H302.933V51.2c0.001,2.264-0.897,4.435-2.498,6.035 s-3.772,2.499-6.035,2.498h-76.8c-2.264,0.001-4.435-0.897-6.035-2.498s-2.499-3.772-2.498-6.035V34.133H64V494.933z"/></g></g></svg>