<svg xmlns="http://www.w3.org/2000/svg" xmlns:xlink="http://www.w3.org/1999/xlink" id="Capa_1" x="0" y="0" version="1.1" viewBox="0 0 511.719 511.719" style="enable-background:new 0 0 511.719 511.719" xml:space="preserve"><g transform="translate(0 -1)"><circle style="fill:#a4c2f7" cx="212.392" cy="203.918" r="193.208"/><linearGradient id="SVGID_1_" x1="-48.87" x2="-48.122" y1="653.526" y2="652.854" gradientTransform="matrix(347.7736 0 0 -386.4151 17058.6484 252606.3438)" gradientUnits="userSpaceOnUse"><stop offset="0" style="stop-color:#d4e1f4"/><stop offset=".172" style="stop-color:#d4e1f4"/><stop offset=".2" style="stop-color:#d4e1f4"/><stop offset=".2" style="stop-color:#dae4f4"/><stop offset=".201" style="stop-color:#ebebf4"/><stop offset=".201" style="stop-color:#f6f1f4"/><stop offset=".202" style="stop-color:#fdf4f4"/><stop offset=".205" style="stop-color:#fff5f4"/><stop offset=".252" style="stop-color:#fff5f4"/><stop offset=".26" style="stop-color:#fff5f4"/><stop offset=".26" style="stop-color:#d4e1f4"/><stop offset=".397" style="stop-color:#d4e1f4"/><stop offset=".42" style="stop-color:#d4e1f4"/><stop offset=".42" style="stop-color:#dae4f4"/><stop offset=".421" style="stop-color:#ebebf4"/><stop offset=".421" style="stop-color:#f6f1f4"/><stop offset=".422" style="stop-color:#fdf4f4"/><stop offset=".425" style="stop-color:#fff5f4"/><stop offset=".489" style="stop-color:#fff5f4"/><stop offset=".5" style="stop-color:#fff5f4"/><stop offset=".5" style="stop-color:#f9f2f4"/><stop offset=".5" style="stop-color:#e8ebf4"/><stop offset=".5" style="stop-color:#dde5f4"/><stop offset=".5" style="stop-color:#d6e2f4"/><stop offset=".501" style="stop-color:#d4e1f4"/><stop offset=".706" style="stop-color:#d4e1f4"/><stop offset=".74" style="stop-color:#d4e1f4"/><stop offset=".741" style="stop-color:#fff5f4"/><stop offset=".835" style="stop-color:#fff5f4"/><stop offset=".85" style="stop-color:#fff5f4"/><stop offset=".851" style="stop-color:#d4e1f4"/></linearGradient><ellipse style="fill:url(#SVGID_1_)" cx="193.071" cy="203.918" rx="173.887" ry="193.208"/><path style="fill:#fff" d="M193.071,397.125c6.46-0.024,12.912-0.445,19.321-1.259 c-86.931-10.69-154.566-92.508-154.566-191.949S125.461,22.659,212.392,11.969c-6.408-0.814-12.861-1.235-19.321-1.259 c-96.035,0-173.887,86.502-173.887,193.208S97.036,397.125,193.071,397.125z"/><g><path style="fill:#428dff" d="M212.392,406.785c-79.745,0-152.094-46.72-184.903-119.403S7.497,129.536,60.245,69.729 c2.28-2.599,5.776-3.78,9.165-3.098c3.389,0.682,6.155,3.124,7.253,6.402c1.097,3.278,0.359,6.894-1.937,9.479 c-61.674,70.097-60.718,175.375,2.221,244.339s167.691,79.515,243.119,24.489s97.361-157.999,50.905-238.988 S224.555-1.689,138.976,35.64c-4.885,2.111-10.557-0.125-12.687-5.001s0.083-10.557,4.951-12.706 C206.875-15.065,294.959,1.034,354.033,58.65s77.367,145.271,46.269,221.706S294.91,406.777,212.392,406.785z"/><path style="fill:#428dff" d="M280.014,213.578H144.769c-5.335,0-9.66-4.325-9.66-9.66c0-5.335,4.325-9.66,9.66-9.66h135.245 c5.335,0,9.66,4.325,9.66,9.66C289.675,209.253,285.349,213.578,280.014,213.578z"/><path style="fill:#428dff" d="M492.543,512.719c-2.629,0.004-5.145-1.068-6.962-2.967L335.401,353.563 c-3.657-3.851-3.519-9.932,0.31-13.613c3.829-3.681,9.911-3.579,13.615,0.227l150.179,156.189 c2.682,2.792,3.439,6.915,1.922,10.477C499.91,510.405,496.414,512.718,492.543,512.719z"/><path style="fill:#428dff" d="M212.392,281.201c-5.335,0-9.66-4.325-9.66-9.66V136.295c0-5.335,4.325-9.66,9.66-9.66 c5.335,0,9.66,4.325,9.66,9.66V271.54C222.052,276.875,217.727,281.201,212.392,281.201z"/><circle style="fill:#428dff" cx="96.467" cy="49.351" r="9.66"/></g></g></svg>