<svg xmlns="http://www.w3.org/2000/svg" xmlns:xlink="http://www.w3.org/1999/xlink" id="Capa_1" x="0" y="0" version="1.1" viewBox="0 0 512.002 512.002" style="enable-background:new 0 0 512.002 512.002" xml:space="preserve"><g><polygon style="fill:#fff" points="52.96 197.361 52.96 238.347 52.96 503.175 255.995 503.175 255.995 8.83"/><polygon style="fill:#a4c2f7" points="255.995 8.83 255.995 503.175 459.029 503.175 459.029 238.347 459.029 197.361"/><polygon style="fill:#e3e7f2" points="255.995 8.83 79.443 203.037 79.443 238.347 79.443 503.175 432.547 503.175 432.547 238.347 432.547 211.864"/><path style="fill:#428dff" d="M503.167,247.175c-2.229,0.004-4.377-0.839-6.009-2.358L255.995,20.877L14.831,244.817 c-3.575,3.305-9.151,3.093-12.464-0.475s-3.113-9.144,0.447-12.465L249.986,2.36c3.388-3.147,8.629-3.147,12.017,0l247.172,229.517 c2.659,2.471,3.534,6.317,2.207,9.696C510.056,244.951,506.797,247.174,503.167,247.175L503.167,247.175z"/><g><linearGradient id="SVGID_1_" x1="-48.542" x2="-47.542" y1="651.69" y2="650.69" gradientTransform="matrix(105.931 0 0 -105.931 5265.7393 69228.4063)" gradientUnits="userSpaceOnUse"><stop offset="0" style="stop-color:#d4e1f4"/><stop offset=".172" style="stop-color:#d4e1f4"/><stop offset=".2" style="stop-color:#d4e1f4"/><stop offset=".2" style="stop-color:#dae4f4"/><stop offset=".201" style="stop-color:#ebebf4"/><stop offset=".201" style="stop-color:#f6f1f4"/><stop offset=".202" style="stop-color:#fdf4f4"/><stop offset=".205" style="stop-color:#fff5f4"/><stop offset=".252" style="stop-color:#fff5f4"/><stop offset=".26" style="stop-color:#fff5f4"/><stop offset=".26" style="stop-color:#d4e1f4"/><stop offset=".397" style="stop-color:#d4e1f4"/><stop offset=".42" style="stop-color:#d4e1f4"/><stop offset=".42" style="stop-color:#dae4f4"/><stop offset=".421" style="stop-color:#ebebf4"/><stop offset=".421" style="stop-color:#f6f1f4"/><stop offset=".422" style="stop-color:#fdf4f4"/><stop offset=".425" style="stop-color:#fff5f4"/><stop offset=".489" style="stop-color:#fff5f4"/><stop offset=".5" style="stop-color:#fff5f4"/><stop offset=".5" style="stop-color:#f9f2f4"/><stop offset=".5" style="stop-color:#e8ebf4"/><stop offset=".5" style="stop-color:#dde5f4"/><stop offset=".5" style="stop-color:#d6e2f4"/><stop offset=".501" style="stop-color:#d4e1f4"/><stop offset=".706" style="stop-color:#d4e1f4"/><stop offset=".74" style="stop-color:#d4e1f4"/><stop offset=".741" style="stop-color:#fff5f4"/><stop offset=".835" style="stop-color:#fff5f4"/><stop offset=".85" style="stop-color:#fff5f4"/><stop offset=".851" style="stop-color:#d4e1f4"/></linearGradient><polygon style="fill:url(#SVGID_1_)" points="211.857 194.209 123.581 194.209 123.581 300.14 211.857 300.14 229.512 300.14 229.512 194.209"/><linearGradient id="SVGID_2_" x1="-48.542" x2="-47.542" y1="651.69" y2="650.69" gradientTransform="matrix(105.931 0 0 -105.931 5424.6357 69228.4063)" gradientUnits="userSpaceOnUse"><stop offset="0" style="stop-color:#d4e1f4"/><stop offset=".172" style="stop-color:#d4e1f4"/><stop offset=".2" style="stop-color:#d4e1f4"/><stop offset=".2" style="stop-color:#dae4f4"/><stop offset=".201" style="stop-color:#ebebf4"/><stop offset=".201" style="stop-color:#f6f1f4"/><stop offset=".202" style="stop-color:#fdf4f4"/><stop offset=".205" style="stop-color:#fff5f4"/><stop offset=".252" style="stop-color:#fff5f4"/><stop offset=".26" style="stop-color:#fff5f4"/><stop offset=".26" style="stop-color:#d4e1f4"/><stop offset=".397" style="stop-color:#d4e1f4"/><stop offset=".42" style="stop-color:#d4e1f4"/><stop offset=".42" style="stop-color:#dae4f4"/><stop offset=".421" style="stop-color:#ebebf4"/><stop offset=".421" style="stop-color:#f6f1f4"/><stop offset=".422" style="stop-color:#fdf4f4"/><stop offset=".425" style="stop-color:#fff5f4"/><stop offset=".489" style="stop-color:#fff5f4"/><stop offset=".5" style="stop-color:#fff5f4"/><stop offset=".5" style="stop-color:#f9f2f4"/><stop offset=".5" style="stop-color:#e8ebf4"/><stop offset=".5" style="stop-color:#dde5f4"/><stop offset=".5" style="stop-color:#d6e2f4"/><stop offset=".501" style="stop-color:#d4e1f4"/><stop offset=".706" style="stop-color:#d4e1f4"/><stop offset=".74" style="stop-color:#d4e1f4"/><stop offset=".741" style="stop-color:#fff5f4"/><stop offset=".835" style="stop-color:#fff5f4"/><stop offset=".85" style="stop-color:#fff5f4"/><stop offset=".851" style="stop-color:#d4e1f4"/></linearGradient><polygon style="fill:url(#SVGID_2_)" points="370.754 194.209 282.478 194.209 282.478 300.14 370.754 300.14 388.409 300.14 388.409 194.209"/><linearGradient id="SVGID_3_" x1="-48.542" x2="-47.542" y1="651.69" y2="650.69" gradientTransform="matrix(105.931 0 0 -105.931 5265.7393 69387.3047)" gradientUnits="userSpaceOnUse"><stop offset="0" style="stop-color:#d4e1f4"/><stop offset=".172" style="stop-color:#d4e1f4"/><stop offset=".2" style="stop-color:#d4e1f4"/><stop offset=".2" style="stop-color:#dae4f4"/><stop offset=".201" style="stop-color:#ebebf4"/><stop offset=".201" style="stop-color:#f6f1f4"/><stop offset=".202" style="stop-color:#fdf4f4"/><stop offset=".205" style="stop-color:#fff5f4"/><stop offset=".252" style="stop-color:#fff5f4"/><stop offset=".26" style="stop-color:#fff5f4"/><stop offset=".26" style="stop-color:#d4e1f4"/><stop offset=".397" style="stop-color:#d4e1f4"/><stop offset=".42" style="stop-color:#d4e1f4"/><stop offset=".42" style="stop-color:#dae4f4"/><stop offset=".421" style="stop-color:#ebebf4"/><stop offset=".421" style="stop-color:#f6f1f4"/><stop offset=".422" style="stop-color:#fdf4f4"/><stop offset=".425" style="stop-color:#fff5f4"/><stop offset=".489" style="stop-color:#fff5f4"/><stop offset=".5" style="stop-color:#fff5f4"/><stop offset=".5" style="stop-color:#f9f2f4"/><stop offset=".5" style="stop-color:#e8ebf4"/><stop offset=".5" style="stop-color:#dde5f4"/><stop offset=".5" style="stop-color:#d6e2f4"/><stop offset=".501" style="stop-color:#d4e1f4"/><stop offset=".706" style="stop-color:#d4e1f4"/><stop offset=".74" style="stop-color:#d4e1f4"/><stop offset=".741" style="stop-color:#fff5f4"/><stop offset=".835" style="stop-color:#fff5f4"/><stop offset=".85" style="stop-color:#fff5f4"/><stop offset=".851" style="stop-color:#d4e1f4"/></linearGradient><polygon style="fill:url(#SVGID_3_)" points="211.857 353.106 123.581 353.106 123.581 459.037 211.857 459.037 229.512 459.037 229.512 353.106"/><linearGradient id="SVGID_4_" x1="-48.542" x2="-47.542" y1="651.69" y2="650.69" gradientTransform="matrix(105.931 0 0 -105.931 5424.6357 69387.3047)" gradientUnits="userSpaceOnUse"><stop offset="0" style="stop-color:#d4e1f4"/><stop offset=".172" style="stop-color:#d4e1f4"/><stop offset=".2" style="stop-color:#d4e1f4"/><stop offset=".2" style="stop-color:#dae4f4"/><stop offset=".201" style="stop-color:#ebebf4"/><stop offset=".201" style="stop-color:#f6f1f4"/><stop offset=".202" style="stop-color:#fdf4f4"/><stop offset=".205" style="stop-color:#fff5f4"/><stop offset=".252" style="stop-color:#fff5f4"/><stop offset=".26" style="stop-color:#fff5f4"/><stop offset=".26" style="stop-color:#d4e1f4"/><stop offset=".397" style="stop-color:#d4e1f4"/><stop offset=".42" style="stop-color:#d4e1f4"/><stop offset=".42" style="stop-color:#dae4f4"/><stop offset=".421" style="stop-color:#ebebf4"/><stop offset=".421" style="stop-color:#f6f1f4"/><stop offset=".422" style="stop-color:#fdf4f4"/><stop offset=".425" style="stop-color:#fff5f4"/><stop offset=".489" style="stop-color:#fff5f4"/><stop offset=".5" style="stop-color:#fff5f4"/><stop offset=".5" style="stop-color:#f9f2f4"/><stop offset=".5" style="stop-color:#e8ebf4"/><stop offset=".5" style="stop-color:#dde5f4"/><stop offset=".5" style="stop-color:#d6e2f4"/><stop offset=".501" style="stop-color:#d4e1f4"/><stop offset=".706" style="stop-color:#d4e1f4"/><stop offset=".74" style="stop-color:#d4e1f4"/><stop offset=".741" style="stop-color:#fff5f4"/><stop offset=".835" style="stop-color:#fff5f4"/><stop offset=".85" style="stop-color:#fff5f4"/><stop offset=".851" style="stop-color:#d4e1f4"/></linearGradient><polygon style="fill:url(#SVGID_4_)" points="370.754 353.106 282.478 353.106 282.478 459.037 370.754 459.037 388.409 459.037 388.409 353.106"/></g><g><path style="fill:#428dff" d="M459.029,361.933c-2.341,0.001-4.587-0.929-6.243-2.585c-1.656-1.656-2.585-3.901-2.585-6.243 V201.213L255.995,20.877L61.788,201.213v37.134c0,4.875-3.952,8.828-8.828,8.828s-8.828-3.952-8.828-8.828v-40.983 c0.003-2.454,1.024-4.797,2.819-6.47L249.986,2.36c3.388-3.147,8.629-3.147,12.017,0l203.034,188.534 c1.795,1.673,2.816,4.016,2.819,6.47v155.741c0.001,2.341-0.929,4.587-2.585,6.243 C463.616,361.004,461.371,361.934,459.029,361.933L459.029,361.933z"/><path style="fill:#428dff" d="M459.029,512.002H52.96c-2.341,0.001-4.587-0.929-6.243-2.585 c-1.656-1.656-2.585-3.901-2.585-6.243V308.968c0-4.875,3.952-8.828,8.828-8.828s8.828,3.952,8.828,8.828v185.379h388.414v-70.621 c0-4.875,3.952-8.828,8.828-8.828s8.828,3.952,8.828,8.828v79.448c0.001,2.341-0.929,4.587-2.585,6.243 C463.616,511.073,461.371,512.003,459.029,512.002z"/><circle style="fill:#428dff" cx="52.96" cy="273.657" r="8.828"/><circle style="fill:#428dff" cx="459.029" cy="388.416" r="8.828"/><path style="fill:#428dff" d="M388.409,308.968H282.478c-2.341,0.001-4.587-0.929-6.243-2.585 c-1.656-1.656-2.585-3.901-2.585-6.243V194.209c-0.001-2.341,0.929-4.587,2.585-6.243c1.656-1.656,3.901-2.585,6.243-2.585 h105.931c2.341-0.001,4.587,0.929,6.243,2.585c1.656,1.656,2.585,3.901,2.585,6.243V300.14c0.001,2.341-0.929,4.587-2.585,6.243 C392.996,308.038,390.75,308.968,388.409,308.968L388.409,308.968z M291.305,291.313h88.276v-88.276h-88.276V291.313z"/><path style="fill:#428dff" d="M229.512,308.968H123.581c-2.341,0.001-4.587-0.929-6.243-2.585 c-1.656-1.656-2.585-3.901-2.585-6.243V194.209c-0.001-2.341,0.929-4.587,2.585-6.243c1.656-1.656,3.901-2.585,6.243-2.585 h105.931c2.341-0.001,4.587,0.929,6.243,2.585c1.656,1.656,2.585,3.901,2.585,6.243V300.14c0.001,2.341-0.929,4.587-2.585,6.243 C234.099,308.038,231.854,308.968,229.512,308.968L229.512,308.968z M132.409,291.313h88.276v-88.276h-88.276V291.313z"/><path style="fill:#428dff" d="M229.512,467.864H123.581c-2.341,0.001-4.587-0.929-6.243-2.585 c-1.656-1.656-2.585-3.901-2.585-6.243V353.106c-0.001-2.341,0.929-4.587,2.585-6.243c1.656-1.656,3.901-2.585,6.243-2.585 h105.931c2.341-0.001,4.587,0.929,6.243,2.585c1.656,1.656,2.585,3.901,2.585,6.243v105.931c0.001,2.341-0.929,4.587-2.585,6.243 C234.099,466.935,231.854,467.865,229.512,467.864z M132.409,450.209h88.276v-88.276h-88.276V450.209z"/><path style="fill:#428dff" d="M388.409,467.864H282.478c-2.341,0.001-4.587-0.929-6.243-2.585 c-1.656-1.656-2.585-3.901-2.585-6.243V353.106c-0.001-2.341,0.929-4.587,2.585-6.243c1.656-1.656,3.901-2.585,6.243-2.585 h105.931c2.341-0.001,4.587,0.929,6.243,2.585c1.656,1.656,2.585,3.901,2.585,6.243v105.931c0.001,2.341-0.929,4.587-2.585,6.243 C392.996,466.935,390.75,467.865,388.409,467.864z M291.305,450.209h88.276v-88.276h-88.276V450.209z"/></g></g></svg>