<svg xmlns="http://www.w3.org/2000/svg" xmlns:xlink="http://www.w3.org/1999/xlink" id="Capa_1" x="0" y="0" version="1.1" viewBox="0 0 511.997 511.997" style="enable-background:new 0 0 511.997 511.997" xml:space="preserve"><g><polygon style="fill:#fff" points="256 396.073 10.086 255.572 103.366 202.604 256 289.809"/><polygon style="fill:#a4c2f7" points="256 9.658 501.915 149.308 256 289.809"/><polygon style="fill:#fff" points="256 289.383 10.086 149.733 256 9.233"/><linearGradient id="SVGID_1_" x1="-48.45" x2="-47.45" y1="651.964" y2="651.964" gradientTransform="matrix(395.2253 0 0 -260.8302 19207.2578 170201.7031)" gradientUnits="userSpaceOnUse"><stop offset="0" style="stop-color:#d4e1f4"/><stop offset=".172" style="stop-color:#d4e1f4"/><stop offset=".2" style="stop-color:#d4e1f4"/><stop offset=".2" style="stop-color:#dae4f4"/><stop offset=".201" style="stop-color:#ebebf4"/><stop offset=".201" style="stop-color:#f6f1f4"/><stop offset=".202" style="stop-color:#fdf4f4"/><stop offset=".205" style="stop-color:#fff5f4"/><stop offset=".252" style="stop-color:#fff5f4"/><stop offset=".26" style="stop-color:#fff5f4"/><stop offset=".26" style="stop-color:#d4e1f4"/><stop offset=".397" style="stop-color:#d4e1f4"/><stop offset=".42" style="stop-color:#d4e1f4"/><stop offset=".42" style="stop-color:#dae4f4"/><stop offset=".421" style="stop-color:#ebebf4"/><stop offset=".421" style="stop-color:#f6f1f4"/><stop offset=".422" style="stop-color:#fdf4f4"/><stop offset=".425" style="stop-color:#fff5f4"/><stop offset=".489" style="stop-color:#fff5f4"/><stop offset=".5" style="stop-color:#fff5f4"/><stop offset=".5" style="stop-color:#f9f2f4"/><stop offset=".5" style="stop-color:#e8ebf4"/><stop offset=".5" style="stop-color:#dde5f4"/><stop offset=".5" style="stop-color:#d6e2f4"/><stop offset=".501" style="stop-color:#d4e1f4"/><stop offset=".706" style="stop-color:#d4e1f4"/><stop offset=".74" style="stop-color:#d4e1f4"/><stop offset=".741" style="stop-color:#fff5f4"/><stop offset=".835" style="stop-color:#fff5f4"/><stop offset=".85" style="stop-color:#fff5f4"/><stop offset=".851" style="stop-color:#d4e1f4"/></linearGradient><polygon style="fill:url(#SVGID_1_)" points="453.613 149.308 256 280.148 58.388 149.308 256 19.318"/><polygon style="fill:#a4c2f7" points="256 396.073 501.915 255.572 408.634 202.604 256 289.809"/><polygon style="fill:#e3e7f2" points="251.595 289.809 131.671 218.187 38.4 271.154 251.595 396.073 464.124 270.488 377.18 222.186"/><polygon style="fill:#fff" points="256 502.598 10.086 362.097 103.366 309.129 256 396.334"/><polygon style="fill:#a4c2f7" points="256 502.598 501.915 362.097 408.634 309.129 256 396.334"/><polygon style="fill:#e3e7f2" points="251.595 396.334 131.671 324.721 38.4 377.689 251.595 502.598 464.124 377.013 377.18 328.711"/><g><path style="fill:#428dff" d="M256.001,299.469c-1.681,0-3.333-0.439-4.792-1.274L5.293,157.695 c-3.008-1.719-4.865-4.916-4.868-8.38c-0.003-3.464,1.849-6.665,4.854-8.389l125.585-72.028c2.995-1.727,6.685-1.722,9.676,0.013 c2.991,1.735,4.826,4.936,4.813,8.393c-0.013,3.457-1.872,6.645-4.876,8.357L29.529,149.294l226.472,129.387l226.392-129.349 L255.869,20.691l-57.674,30.943c-3.043,1.643-6.732,1.535-9.673-0.285c-2.941-1.819-4.685-5.072-4.574-8.528 c0.112-3.456,2.062-6.59,5.115-8.215l62.373-33.462c2.926-1.564,6.448-1.521,9.335,0.113l245.91,139.651 c3.019,1.714,4.887,4.915,4.892,8.387c0.005,3.472-1.854,6.679-4.868,8.401l-245.91,140.5 C259.334,299.03,257.682,299.469,256.001,299.469z"/><path style="fill:#428dff" d="M256.001,405.733c-1.681,0-3.333-0.439-4.792-1.274L5.293,263.96 c-3.014-1.722-4.873-4.929-4.868-8.401c0.005-3.472,1.872-6.673,4.892-8.387L98.595,194.2c2.967-1.68,6.599-1.674,9.561,0.014 l147.844,84.467l147.84-84.467c2.962-1.688,6.594-1.694,9.561-0.014l93.278,52.972c3.019,1.714,4.887,4.915,4.892,8.387 c0.005,3.472-1.854,6.679-4.868,8.401l-245.91,140.5C259.334,405.294,257.682,405.733,256.001,405.733z M29.605,255.596 l226.396,129.349l226.392-129.349l-73.745-41.878l-147.854,84.477c-2.969,1.698-6.616,1.698-9.585,0L103.35,213.719 L29.605,255.596z"/><path style="fill:#428dff" d="M256.001,511.997c-1.681,0-3.333-0.439-4.792-1.274L5.293,370.224 c-3.014-1.722-4.873-4.929-4.868-8.401c0.005-3.472,1.872-6.673,4.892-8.387l93.278-52.972c2.967-1.68,6.599-1.674,9.561,0.014 l147.844,84.467l147.84-84.467c2.962-1.688,6.594-1.694,9.561-0.014l93.278,52.972c3.019,1.714,4.887,4.915,4.892,8.387 c0.005,3.472-1.854,6.679-4.868,8.401l-245.91,140.5C259.334,511.559,257.682,511.998,256.001,511.997z M29.605,361.86 l226.396,129.349L482.392,361.86l-73.745-41.878l-147.854,84.477c-2.969,1.698-6.616,1.698-9.585,0L103.35,319.983L29.605,361.86z"/><circle style="fill:#428dff" cx="164.652" cy="57.959" r="9.66"/></g></g></svg>