<svg xmlns="http://www.w3.org/2000/svg" xmlns:xlink="http://www.w3.org/1999/xlink" id="Capa_1" x="0" y="0" version="1.1" viewBox="0 0 512 512" style="enable-background:new 0 0 512 512" xml:space="preserve"><g><rect x="9.143" y="141.714" style="fill:#fff" width="219.429" height="338.286"/><rect x="283.429" y="141.714" style="fill:#a4c2f7" width="219.429" height="338.286"/><linearGradient id="SVGID_1_" x1="-48.831" x2="-47.946" y1="652.663" y2="651.515" gradientTransform="matrix(438.8572 0 0 -338.2857 21491.5723 220903.2969)" gradientUnits="userSpaceOnUse"><stop offset="0" style="stop-color:#d4e1f4"/><stop offset=".172" style="stop-color:#d4e1f4"/><stop offset=".2" style="stop-color:#d4e1f4"/><stop offset=".2" style="stop-color:#dae4f4"/><stop offset=".201" style="stop-color:#ebebf4"/><stop offset=".201" style="stop-color:#f6f1f4"/><stop offset=".202" style="stop-color:#fdf4f4"/><stop offset=".205" style="stop-color:#fff5f4"/><stop offset=".252" style="stop-color:#fff5f4"/><stop offset=".26" style="stop-color:#fff5f4"/><stop offset=".26" style="stop-color:#d4e1f4"/><stop offset=".397" style="stop-color:#d4e1f4"/><stop offset=".42" style="stop-color:#d4e1f4"/><stop offset=".42" style="stop-color:#dae4f4"/><stop offset=".421" style="stop-color:#ebebf4"/><stop offset=".421" style="stop-color:#f6f1f4"/><stop offset=".422" style="stop-color:#fdf4f4"/><stop offset=".425" style="stop-color:#fff5f4"/><stop offset=".489" style="stop-color:#fff5f4"/><stop offset=".5" style="stop-color:#fff5f4"/><stop offset=".5" style="stop-color:#f9f2f4"/><stop offset=".5" style="stop-color:#e8ebf4"/><stop offset=".5" style="stop-color:#dde5f4"/><stop offset=".5" style="stop-color:#d6e2f4"/><stop offset=".501" style="stop-color:#d4e1f4"/><stop offset=".706" style="stop-color:#d4e1f4"/><stop offset=".74" style="stop-color:#d4e1f4"/><stop offset=".741" style="stop-color:#fff5f4"/><stop offset=".835" style="stop-color:#fff5f4"/><stop offset=".85" style="stop-color:#fff5f4"/><stop offset=".851" style="stop-color:#d4e1f4"/></linearGradient><rect x="36.571" y="141.714" style="fill:url(#SVGID_1_)" width="438.857" height="338.286"/><g><path style="fill:#428dff" d="M502.857,361.143c-2.425,0.001-4.751-0.962-6.466-2.677c-1.715-1.715-2.678-4.041-2.677-6.466 V150.857H18.286v27.433c0,5.049-4.093,9.143-9.143,9.143S0,183.34,0,178.29v-36.576c-0.001-2.425,0.962-4.751,2.677-6.466 c1.715-1.715,4.041-2.678,6.466-2.677h493.714c2.425-0.001,4.751,0.962,6.466,2.677c1.715,1.715,2.678,4.041,2.677,6.466V352 c0.001,2.425-0.962,4.751-2.677,6.466C507.608,360.18,505.282,361.143,502.857,361.143z"/><path style="fill:#428dff" d="M502.857,489.143H9.143c-2.425,0.001-4.751-0.962-6.466-2.677C0.962,484.751-0.001,482.425,0,480 V251.429c0-5.049,4.093-9.143,9.143-9.143s9.143,4.093,9.143,9.143v219.429h475.429v-45.714c0-5.049,4.093-9.143,9.143-9.143 c5.049,0,9.143,4.093,9.143,9.143V480c0.001,2.425-0.962,4.751-2.677,6.466C507.608,488.18,505.282,489.143,502.857,489.143z"/><path style="fill:#428dff" d="M484.571,114.286H27.429c-5.049,0-9.143-4.093-9.143-9.143c0-5.049,4.093-9.143,9.143-9.143 h457.143c5.049,0,9.143,4.093,9.143,9.143C493.714,110.192,489.621,114.286,484.571,114.286z"/><path style="fill:#428dff" d="M457.143,77.714H54.857c-5.049,0-9.143-4.093-9.143-9.143s4.093-9.143,9.143-9.143h402.286 c5.049,0,9.143,4.093,9.143,9.143S462.192,77.714,457.143,77.714z"/><path style="fill:#428dff" d="M429.714,41.143H82.286c-5.049,0-9.143-4.093-9.143-9.143s4.093-9.143,9.143-9.143h347.429 c5.049,0,9.143,4.093,9.143,9.143S434.764,41.143,429.714,41.143z"/><circle style="fill:#428dff" cx="9.143" cy="214.857" r="9.143"/><circle style="fill:#428dff" cx="502.857" cy="388.571" r="9.143"/></g></g></svg>