<svg xmlns="http://www.w3.org/2000/svg" xmlns:xlink="http://www.w3.org/1999/xlink" id="Capa_1" x="0" y="0" version="1.1" viewBox="0 0 512 512" style="enable-background:new 0 0 512 512" xml:space="preserve"><g><rect x="79.448" y="52.966" style="fill:#fff" width="176.552" height="406.069"/><rect x="256" y="52.966" style="fill:#a4c2f7" width="176.552" height="406.069"/><rect x="441.379" y="88.276" style="fill:#e3e7f2" width="17.655" height="335.448"/><rect x="476.69" y="123.586" style="fill:#a4c2f7" width="17.655" height="264.828"/><rect x="52.966" y="88.276" style="fill:#e3e7f2" width="17.655" height="335.448"/><rect x="17.655" y="123.586" style="fill:#a4c2f7" width="17.655" height="264.828"/><linearGradient id="SVGID_1_" x1="-48.925" x2="-47.748" y1="652.592" y2="651.723" gradientTransform="matrix(300.1379 0 0 -406.069 14763.6895 265077)" gradientUnits="userSpaceOnUse"><stop offset="0" style="stop-color:#d4e1f4"/><stop offset=".172" style="stop-color:#d4e1f4"/><stop offset=".2" style="stop-color:#d4e1f4"/><stop offset=".2" style="stop-color:#dae4f4"/><stop offset=".201" style="stop-color:#ebebf4"/><stop offset=".201" style="stop-color:#f6f1f4"/><stop offset=".202" style="stop-color:#fdf4f4"/><stop offset=".205" style="stop-color:#fff5f4"/><stop offset=".252" style="stop-color:#fff5f4"/><stop offset=".26" style="stop-color:#fff5f4"/><stop offset=".26" style="stop-color:#d4e1f4"/><stop offset=".397" style="stop-color:#d4e1f4"/><stop offset=".42" style="stop-color:#d4e1f4"/><stop offset=".42" style="stop-color:#dae4f4"/><stop offset=".421" style="stop-color:#ebebf4"/><stop offset=".421" style="stop-color:#f6f1f4"/><stop offset=".422" style="stop-color:#fdf4f4"/><stop offset=".425" style="stop-color:#fff5f4"/><stop offset=".489" style="stop-color:#fff5f4"/><stop offset=".5" style="stop-color:#fff5f4"/><stop offset=".5" style="stop-color:#f9f2f4"/><stop offset=".5" style="stop-color:#e8ebf4"/><stop offset=".5" style="stop-color:#dde5f4"/><stop offset=".5" style="stop-color:#d6e2f4"/><stop offset=".501" style="stop-color:#d4e1f4"/><stop offset=".706" style="stop-color:#d4e1f4"/><stop offset=".74" style="stop-color:#d4e1f4"/><stop offset=".741" style="stop-color:#fff5f4"/><stop offset=".835" style="stop-color:#fff5f4"/><stop offset=".85" style="stop-color:#fff5f4"/><stop offset=".851" style="stop-color:#d4e1f4"/></linearGradient><rect x="105.931" y="52.966" style="fill:url(#SVGID_1_)" width="300.138" height="406.069"/><g><path style="fill:#428dff" d="M326.621,467.862H79.448c-2.341,0.001-4.587-0.929-6.243-2.585 c-1.656-1.656-2.585-3.901-2.585-6.243V52.966c-0.001-2.341,0.929-4.587,2.585-6.243c1.656-1.656,3.901-2.585,6.243-2.585h35.31 c4.875,0,8.828,3.952,8.828,8.828s-3.952,8.828-8.828,8.828H88.276v388.414h238.345c4.875,0,8.828,3.952,8.828,8.828 S331.496,467.862,326.621,467.862z"/><path style="fill:#428dff" d="M432.552,467.862h-35.31c-4.875,0-8.828-3.952-8.828-8.828s3.952-8.828,8.828-8.828h26.483V61.793 H185.379c-4.875,0-8.828-3.952-8.828-8.828s3.952-8.828,8.828-8.828h247.172c2.341-0.001,4.587,0.929,6.243,2.585 c1.656,1.656,2.585,3.901,2.585,6.243v406.069c0.001,2.341-0.929,4.587-2.585,6.243 C437.139,466.933,434.893,467.863,432.552,467.862z"/><path style="fill:#428dff" d="M467.862,432.552h-35.31c-2.341,0.001-4.587-0.929-6.243-2.585 c-1.656-1.656-2.585-3.901-2.585-6.243V88.276c-0.001-2.341,0.929-4.587,2.585-6.243c1.656-1.656,3.901-2.585,6.243-2.585h35.31 c2.341-0.001,4.587,0.929,6.243,2.585c1.656,1.656,2.585,3.901,2.585,6.243v335.448c0.001,2.341-0.929,4.587-2.585,6.243 C472.449,431.622,470.203,432.552,467.862,432.552L467.862,432.552z M441.379,414.897h17.655V97.103h-17.655V414.897z"/><path style="fill:#428dff" d="M79.448,432.552h-35.31c-2.341,0.001-4.587-0.929-6.243-2.585 c-1.656-1.656-2.585-3.901-2.585-6.243V88.276c-0.001-2.341,0.929-4.587,2.585-6.243c1.656-1.656,3.901-2.585,6.243-2.585h35.31 c2.341-0.001,4.587,0.929,6.243,2.585s2.585,3.901,2.585,6.243v335.448c0.001,2.341-0.929,4.587-2.585,6.243 C84.035,431.622,81.79,432.552,79.448,432.552L79.448,432.552z M52.966,414.897h17.655V97.103H52.966V414.897z"/><path style="fill:#428dff" d="M503.172,397.241h-35.31c-2.341,0.001-4.587-0.929-6.243-2.585 c-1.656-1.656-2.585-3.901-2.585-6.243V123.586c-0.001-2.341,0.929-4.587,2.585-6.243c1.656-1.656,3.901-2.585,6.243-2.585h35.31 c2.341-0.001,4.587,0.929,6.243,2.585c1.656,1.656,2.585,3.901,2.585,6.243v264.828c0.001,2.341-0.929,4.587-2.585,6.243 C507.759,396.312,505.514,397.242,503.172,397.241z M476.69,379.586h17.655V132.414H476.69V379.586z"/><path style="fill:#428dff" d="M44.138,397.241H8.828c-2.341,0.001-4.587-0.929-6.243-2.585c-1.656-1.656-2.585-3.901-2.585-6.243 V123.586c-0.001-2.341,0.929-4.587,2.585-6.243c1.656-1.656,3.901-2.585,6.243-2.585h35.31c2.341-0.001,4.587,0.929,6.243,2.585 c1.656,1.656,2.585,3.901,2.585,6.243v264.828c0.001,2.341-0.929,4.587-2.585,6.243C48.725,396.312,46.479,397.242,44.138,397.241 z M17.655,379.586H35.31V132.414H17.655V379.586z"/><circle style="fill:#428dff" cx="150.069" cy="52.966" r="8.828"/><circle style="fill:#428dff" cx="361.931" cy="459.034" r="8.828"/></g></g></svg>