<svg xmlns="http://www.w3.org/2000/svg" xmlns:xlink="http://www.w3.org/1999/xlink" id="Capa_1" x="0" y="0" version="1.1" viewBox="0 0 512 512" style="enable-background:new 0 0 512 512" xml:space="preserve"><g><path style="fill:#7facfa" d="M477.935,384H34.065c-14.101,0-25.532-11.431-25.532-25.532V153.532 C8.533,139.431,19.964,128,34.065,128h443.87c14.101,0,25.532,11.431,25.532,25.532v204.937 C503.467,372.569,492.036,384,477.935,384z"/><g><path style="fill:#a4c2f7" d="M324.335,384H59.665c-14.101,0-25.532-11.431-25.532-25.532V153.532 c0-14.101,11.431-25.532,25.532-25.532h264.67c14.101,0,25.532,11.431,25.532,25.532v204.937 C349.867,372.569,338.436,384,324.335,384z"/><path style="fill:#a4c2f7" d="M477.935,384H272.998c-14.101,0-25.532-11.431-25.532-25.532V153.532 c0-14.101,11.431-25.532,25.532-25.532h204.937c14.101,0,25.532,11.431,25.532,25.532v204.937 C503.467,372.569,492.036,384,477.935,384z"/></g><linearGradient id="SVGID_1_" x1="-48.213" x2="-49.265" y1="652.622" y2="653.464" gradientTransform="matrix(-204.8 0 0 256 -9606.334 -166923.0156)" gradientUnits="userSpaceOnUse"><stop offset="0" style="stop-color:#d4e1f4"/><stop offset=".172" style="stop-color:#d4e1f4"/><stop offset=".2" style="stop-color:#d4e1f4"/><stop offset=".2" style="stop-color:#dae4f4"/><stop offset=".201" style="stop-color:#ebebf4"/><stop offset=".201" style="stop-color:#f6f1f4"/><stop offset=".202" style="stop-color:#fdf4f4"/><stop offset=".205" style="stop-color:#fff5f4"/><stop offset=".252" style="stop-color:#fff5f4"/><stop offset=".26" style="stop-color:#fff5f4"/><stop offset=".26" style="stop-color:#d4e1f4"/><stop offset=".397" style="stop-color:#d4e1f4"/><stop offset=".42" style="stop-color:#d4e1f4"/><stop offset=".42" style="stop-color:#dae4f4"/><stop offset=".421" style="stop-color:#ebebf4"/><stop offset=".421" style="stop-color:#f6f1f4"/><stop offset=".422" style="stop-color:#fdf4f4"/><stop offset=".425" style="stop-color:#fff5f4"/><stop offset=".489" style="stop-color:#fff5f4"/><stop offset=".5" style="stop-color:#fff5f4"/><stop offset=".5" style="stop-color:#f9f2f4"/><stop offset=".5" style="stop-color:#e8ebf4"/><stop offset=".5" style="stop-color:#dde5f4"/><stop offset=".5" style="stop-color:#d6e2f4"/><stop offset=".501" style="stop-color:#d4e1f4"/><stop offset=".706" style="stop-color:#d4e1f4"/><stop offset=".74" style="stop-color:#d4e1f4"/><stop offset=".741" style="stop-color:#fff5f4"/><stop offset=".835" style="stop-color:#fff5f4"/><stop offset=".85" style="stop-color:#fff5f4"/><stop offset=".851" style="stop-color:#d4e1f4"/></linearGradient><path style="fill:url(#SVGID_1_)" d="M452.335,384H298.598c-14.101,0-25.532-11.431-25.532-25.532V153.532 c0-14.101,11.431-25.532,25.532-25.532h153.737c14.101,0,25.532,11.431,25.532,25.532v204.937 C477.867,372.569,466.436,384,452.335,384z"/><path style="fill:#fff" d="M477.798,153.532v204.936c0,14.101-11.431,25.532-25.532,25.532h25.6 c14.101,0,25.532-11.431,25.532-25.532V153.532c0-14.101-11.431-25.532-25.532-25.532h-25.6 C466.368,128,477.798,139.431,477.798,153.532z"/><g><path style="fill:#428dff" d="M477.933,392.533H34.067C15.261,392.511,0.022,377.272,0,358.467V153.533 c0.022-18.805,15.261-34.045,34.067-34.067h443.867c18.805,0.022,34.045,15.261,34.067,34.067v204.933 C511.978,377.272,496.739,392.511,477.933,392.533L477.933,392.533z M34.067,136.533c-9.385,0.01-16.99,7.615-17,17v204.933 c0.01,9.385,7.615,16.99,17,17h443.867c9.385-0.01,16.99-7.615,17-17V153.533c-0.01-9.385-7.615-16.99-17-17H34.067z"/><path style="fill:#428dff" d="M477.933,392.533H273c-18.805-0.022-34.045-15.261-34.067-34.067V153.533 c0.022-18.805,15.261-34.045,34.067-34.067h204.933c18.805,0.022,34.045,15.261,34.067,34.067v204.933 C511.978,377.272,496.739,392.511,477.933,392.533L477.933,392.533z M273,136.533c-9.385,0.01-16.99,7.615-17,17v204.933 c0.01,9.385,7.615,16.99,17,17h204.933c9.385-0.01,16.99-7.615,17-17V153.533c-0.01-9.385-7.615-16.99-17-17H273z"/><path style="fill:#428dff" d="M401.067,290.133c-2.263,0.001-4.434-0.898-6.035-2.499c-1.6-1.6-2.499-3.771-2.499-6.035v-51.2 c0-4.713,3.82-8.533,8.533-8.533s8.533,3.82,8.533,8.533v51.2c0.001,2.263-0.898,4.434-2.499,6.035 C405.501,289.235,403.33,290.134,401.067,290.133L401.067,290.133z"/><path style="fill:#428dff" d="M375.467,290.133c-2.263,0.001-4.434-0.898-6.035-2.499c-1.6-1.6-2.499-3.771-2.499-6.035v-51.2 c0-4.713,3.821-8.533,8.533-8.533c4.713,0,8.533,3.82,8.533,8.533v51.2c0.001,2.263-0.898,4.434-2.499,6.035 S377.73,290.134,375.467,290.133L375.467,290.133z"/><path style="fill:#428dff" d="M349.867,290.133c-2.263,0.001-4.434-0.898-6.035-2.499s-2.499-3.771-2.499-6.035v-51.2 c0-4.713,3.821-8.533,8.533-8.533c4.713,0,8.533,3.82,8.533,8.533v51.2c0.001,2.263-0.898,4.434-2.499,6.035 S352.13,290.134,349.867,290.133L349.867,290.133z"/></g></g></svg>