<svg xmlns="http://www.w3.org/2000/svg" xmlns:xlink="http://www.w3.org/1999/xlink" id="Capa_1" x="0" y="0" version="1.1" viewBox="0 0 512 512" style="enable-background:new 0 0 512 512" xml:space="preserve"><g><circle style="fill:#a4c2f7" cx="256" cy="315.733" r="136.533"/><linearGradient id="SVGID_1_" x1="-48.674" x2="-47.93" y1="652.328" y2="651.653" gradientTransform="matrix(247.4667 0 0 -273.0667 12196.334 178352.6719)" gradientUnits="userSpaceOnUse"><stop offset="0" style="stop-color:#d4e1f4"/><stop offset=".172" style="stop-color:#d4e1f4"/><stop offset=".2" style="stop-color:#d4e1f4"/><stop offset=".2" style="stop-color:#dae4f4"/><stop offset=".201" style="stop-color:#ebebf4"/><stop offset=".201" style="stop-color:#f6f1f4"/><stop offset=".202" style="stop-color:#fdf4f4"/><stop offset=".205" style="stop-color:#fff5f4"/><stop offset=".252" style="stop-color:#fff5f4"/><stop offset=".26" style="stop-color:#fff5f4"/><stop offset=".26" style="stop-color:#d4e1f4"/><stop offset=".397" style="stop-color:#d4e1f4"/><stop offset=".42" style="stop-color:#d4e1f4"/><stop offset=".42" style="stop-color:#dae4f4"/><stop offset=".421" style="stop-color:#ebebf4"/><stop offset=".421" style="stop-color:#f6f1f4"/><stop offset=".422" style="stop-color:#fdf4f4"/><stop offset=".425" style="stop-color:#fff5f4"/><stop offset=".489" style="stop-color:#fff5f4"/><stop offset=".5" style="stop-color:#fff5f4"/><stop offset=".5" style="stop-color:#f9f2f4"/><stop offset=".5" style="stop-color:#e8ebf4"/><stop offset=".5" style="stop-color:#dde5f4"/><stop offset=".5" style="stop-color:#d6e2f4"/><stop offset=".501" style="stop-color:#d4e1f4"/><stop offset=".706" style="stop-color:#d4e1f4"/><stop offset=".74" style="stop-color:#d4e1f4"/><stop offset=".741" style="stop-color:#fff5f4"/><stop offset=".835" style="stop-color:#fff5f4"/><stop offset=".85" style="stop-color:#fff5f4"/><stop offset=".851" style="stop-color:#d4e1f4"/></linearGradient><ellipse style="fill:url(#SVGID_1_)" cx="243.2" cy="315.733" rx="123.733" ry="136.533"/><path style="fill:#fff" d="M159.456,412.276c27.291,27.298,64.895,41.716,103.44,39.661 c-65.576-3.423-117.83-62.998-117.83-136.205c0-73.204,52.253-132.779,117.825-136.204 c-56.409-2.939-108.792,29.197-131.732,80.815S119.473,372.377,159.456,412.276L159.456,412.276z"/><g><path style="fill:#428dff" d="M503.467,315.733c-2.264,0.001-4.435-0.897-6.035-2.498c-1.601-1.601-2.499-3.772-2.498-6.035 c0-131.959-106.974-238.933-238.933-238.933S17.067,175.241,17.067,307.2c0,4.713-3.821,8.533-8.533,8.533S0,311.913,0,307.2 c0-141.385,114.615-256,256-256s256,114.615,256,256c0.001,2.264-0.897,4.435-2.498,6.035 C507.901,314.836,505.73,315.734,503.467,315.733L503.467,315.733z"/><path style="fill:#428dff" d="M256,460.8c-69.212,0.004-128.789-48.884-142.295-116.766 c-13.506-67.882,22.821-135.851,86.764-162.34c63.943-26.488,137.693-4.119,176.146,53.429s30.9,134.244-18.041,183.185l0,0 C331.431,445.604,294.495,460.905,256,460.8L256,460.8z M256,187.733c-57.934-0.001-108.646,38.91-123.641,94.87 c-14.995,55.96,9.466,115.014,59.639,143.981c50.172,28.967,113.546,20.623,154.511-20.343l0,0 c36.607-36.608,47.557-91.662,27.746-139.491S307.77,187.734,256,187.733z"/><path style="fill:#428dff" d="M256,324.266c-3.451-0.001-6.562-2.08-7.882-5.268c-1.32-3.188-0.591-6.858,1.849-9.298 l96.541-96.542c2.155-2.156,5.297-2.997,8.242-2.208c2.944,0.789,5.244,3.089,6.033,6.033c0.789,2.944-0.053,6.086-2.208,8.242 l-96.542,96.541C260.435,323.369,258.264,324.269,256,324.266L256,324.266z"/></g></g></svg>