<svg xmlns="http://www.w3.org/2000/svg" xmlns:xlink="http://www.w3.org/1999/xlink" id="Capa_1" x="0" y="0" version="1.1" viewBox="0 0 510.944 510.944" style="enable-background:new 0 0 510.944 510.944" xml:space="preserve"><g><path style="fill:#a4c2f7" d="M414.897,220.162h-220.69V61.265h220.69l86.514,77.862c0.45,0.405,0.706,0.981,0.706,1.586 s-0.257,1.181-0.706,1.586L414.897,220.162z"/><rect x="8.828" y="61.265" style="fill:#fff" width="220.69" height="158.897"/><linearGradient id="SVGID_1_" x1="-48.774" x2="-48.181" y1="651.904" y2="650.29" gradientTransform="matrix(432.5519 0 0 -158.8965 21181.3535 103597.8281)" gradientUnits="userSpaceOnUse"><stop offset="0" style="stop-color:#d4e1f4"/><stop offset=".172" style="stop-color:#d4e1f4"/><stop offset=".2" style="stop-color:#d4e1f4"/><stop offset=".2" style="stop-color:#dae4f4"/><stop offset=".201" style="stop-color:#ebebf4"/><stop offset=".201" style="stop-color:#f6f1f4"/><stop offset=".202" style="stop-color:#fdf4f4"/><stop offset=".205" style="stop-color:#fff5f4"/><stop offset=".252" style="stop-color:#fff5f4"/><stop offset=".26" style="stop-color:#fff5f4"/><stop offset=".26" style="stop-color:#d4e1f4"/><stop offset=".397" style="stop-color:#d4e1f4"/><stop offset=".42" style="stop-color:#d4e1f4"/><stop offset=".42" style="stop-color:#dae4f4"/><stop offset=".421" style="stop-color:#ebebf4"/><stop offset=".421" style="stop-color:#f6f1f4"/><stop offset=".422" style="stop-color:#fdf4f4"/><stop offset=".425" style="stop-color:#fff5f4"/><stop offset=".489" style="stop-color:#fff5f4"/><stop offset=".5" style="stop-color:#fff5f4"/><stop offset=".5" style="stop-color:#f9f2f4"/><stop offset=".5" style="stop-color:#e8ebf4"/><stop offset=".5" style="stop-color:#dde5f4"/><stop offset=".5" style="stop-color:#d6e2f4"/><stop offset=".501" style="stop-color:#d4e1f4"/><stop offset=".706" style="stop-color:#d4e1f4"/><stop offset=".74" style="stop-color:#d4e1f4"/><stop offset=".741" style="stop-color:#fff5f4"/><stop offset=".835" style="stop-color:#fff5f4"/><stop offset=".85" style="stop-color:#fff5f4"/><stop offset=".851" style="stop-color:#d4e1f4"/></linearGradient><path style="fill:url(#SVGID_1_)" d="M380.642,220.162H35.31V61.265h345.332l86.514,77.862c0.45,0.405,0.706,0.981,0.706,1.586 s-0.257,1.181-0.706,1.586L380.642,220.162z"/><g><path style="fill:#428dff" d="M220.69,70.084c-2.341,0.001-4.587-0.929-6.243-2.585s-2.585-3.901-2.585-6.243V17.127 c0-4.875,3.952-8.828,8.828-8.828s8.828,3.952,8.828,8.828v44.129c0.001,2.341-0.929,4.587-2.585,6.243 C225.277,69.155,223.031,70.085,220.69,70.084z"/><path style="fill:#428dff" d="M220.69,502.645c-2.341,0.001-4.587-0.929-6.243-2.585c-1.656-1.656-2.585-3.901-2.585-6.243 V220.162c0-4.875,3.952-8.828,8.828-8.828s8.828,3.952,8.828,8.828v273.655c0.001,2.341-0.929,4.587-2.585,6.243 C225.277,501.715,223.031,502.645,220.69,502.645z"/><path style="fill:#428dff" d="M414.897,228.989H8.828c-2.341,0.001-4.587-0.929-6.243-2.585 c-1.656-1.656-2.585-3.901-2.585-6.243V61.265c-0.001-2.341,0.929-4.587,2.585-6.243s3.901-2.585,6.243-2.585h406.069 c2.181,0.001,4.284,0.809,5.906,2.267l86.513,77.862c2.313,2.081,3.632,5.048,3.629,8.159c-0.003,3.112-1.329,6.075-3.647,8.151 l-86.495,77.845C419.181,228.181,417.077,228.988,414.897,228.989z M17.655,211.334h393.853l78.465-70.621l-78.465-70.621H17.655 V211.334z M495.496,145.679l0.026,0.026L495.496,145.679z M495.505,135.739l-0.026,0.018L495.505,135.739z"/></g></g></svg>