<svg xmlns="http://www.w3.org/2000/svg" xmlns:xlink="http://www.w3.org/1999/xlink" id="Capa_1" x="0" y="0" version="1.1" viewBox="0 0 512 512" style="enable-background:new 0 0 512 512" xml:space="preserve"><g><rect x="264.533" y="8.533" style="fill:#a4c2f7" width="238.933" height="494.933"/><rect x="8.533" y="8.533" style="fill:#fff" width="238.933" height="494.933"/><linearGradient id="SVGID_1_" x1="-48.918" x2="-47.861" y1="652.693" y2="651.745" gradientTransform="matrix(443.7334 0 0 -494.9333 21728.0684 323061.0313)" gradientUnits="userSpaceOnUse"><stop offset="0" style="stop-color:#d4e1f4"/><stop offset=".172" style="stop-color:#d4e1f4"/><stop offset=".2" style="stop-color:#d4e1f4"/><stop offset=".2" style="stop-color:#dae4f4"/><stop offset=".201" style="stop-color:#ebebf4"/><stop offset=".201" style="stop-color:#f6f1f4"/><stop offset=".202" style="stop-color:#fdf4f4"/><stop offset=".205" style="stop-color:#fff5f4"/><stop offset=".252" style="stop-color:#fff5f4"/><stop offset=".26" style="stop-color:#fff5f4"/><stop offset=".26" style="stop-color:#d4e1f4"/><stop offset=".397" style="stop-color:#d4e1f4"/><stop offset=".42" style="stop-color:#d4e1f4"/><stop offset=".42" style="stop-color:#dae4f4"/><stop offset=".421" style="stop-color:#ebebf4"/><stop offset=".421" style="stop-color:#f6f1f4"/><stop offset=".422" style="stop-color:#fdf4f4"/><stop offset=".425" style="stop-color:#fff5f4"/><stop offset=".489" style="stop-color:#fff5f4"/><stop offset=".5" style="stop-color:#fff5f4"/><stop offset=".5" style="stop-color:#f9f2f4"/><stop offset=".5" style="stop-color:#e8ebf4"/><stop offset=".5" style="stop-color:#dde5f4"/><stop offset=".5" style="stop-color:#d6e2f4"/><stop offset=".501" style="stop-color:#d4e1f4"/><stop offset=".706" style="stop-color:#d4e1f4"/><stop offset=".74" style="stop-color:#d4e1f4"/><stop offset=".741" style="stop-color:#fff5f4"/><stop offset=".835" style="stop-color:#fff5f4"/><stop offset=".85" style="stop-color:#fff5f4"/><stop offset=".851" style="stop-color:#d4e1f4"/></linearGradient><rect x="34.133" y="8.533" style="fill:url(#SVGID_1_)" width="443.733" height="494.933"/><g><path style="fill:#428dff" d="M401.067,145.067H199.929c-4.713,0-8.533-3.821-8.533-8.533s3.821-8.533,8.533-8.533h201.137 c4.713,0,8.533,3.821,8.533,8.533S405.78,145.067,401.067,145.067z"/><path style="fill:#428dff" d="M401.067,273.067H199.929c-4.713,0-8.533-3.82-8.533-8.533s3.821-8.533,8.533-8.533h201.137 c4.713,0,8.533,3.821,8.533,8.533S405.78,273.067,401.067,273.067z"/><path style="fill:#428dff" d="M401.067,401.067H199.929c-4.713,0-8.533-3.82-8.533-8.533s3.821-8.533,8.533-8.533h201.137 c4.713,0,8.533,3.82,8.533,8.533S405.78,401.067,401.067,401.067z"/><path style="fill:#428dff" d="M503.467,512H8.533c-2.263,0.001-4.434-0.898-6.035-2.499c-1.6-1.6-2.499-3.771-2.499-6.035V8.533 C-0.001,6.27,0.898,4.099,2.499,2.499S6.27-0.001,8.533,0h494.933c2.263-0.001,4.434,0.898,6.035,2.499 c1.6,1.6,2.499,3.771,2.499,6.035v494.933c0.001,2.263-0.898,4.434-2.499,6.035C507.901,511.102,505.73,512.001,503.467,512 L503.467,512z M17.067,494.933h477.867V17.067H17.067V494.933z"/><polygon style="fill:#428dff" points="127.394 93.867 137.754 114.859 160.922 118.229 144.162 134.571 148.113 157.645 127.394 146.748 106.675 157.645 110.635 134.571 93.867 118.229 117.035 114.859"/><polygon style="fill:#428dff" points="127.394 222.575 137.754 243.567 160.922 246.938 144.162 263.279 148.113 286.353 127.394 275.456 106.675 286.353 110.635 263.279 93.867 246.938 117.035 243.567"/><polygon style="fill:#428dff" points="127.394 354.355 137.754 375.356 160.922 378.718 144.162 395.059 148.113 418.133 127.394 407.236 106.675 418.133 110.635 395.059 93.867 378.718 117.035 375.356"/></g></g></svg>