<svg xmlns="http://www.w3.org/2000/svg" xmlns:xlink="http://www.w3.org/1999/xlink" id="Capa_1" x="0" y="0" version="1.1" viewBox="0 0 512 512" style="enable-background:new 0 0 512 512" xml:space="preserve"><g><path style="fill:#a4c2f7" d="M268.094,97.103h214.157c11.555,0,20.921,9.367,20.921,20.921v311.261 c0,11.555-9.367,20.921-20.921,20.921H268.094c-11.555,0-20.921-9.367-20.921-20.921V118.025 C247.172,106.47,256.539,97.103,268.094,97.103z"/><path style="fill:#fff" d="M29.749,97.103h214.157c11.555,0,20.921,9.367,20.921,20.921v311.261 c0,11.555-9.367,20.921-20.921,20.921H29.749c-11.555,0-20.921-9.367-20.921-20.921V118.025 C8.828,106.47,18.194,97.103,29.749,97.103z"/><path style="fill:#e3e7f2" d="M56.232,97.103h399.537c11.555,0,20.921,9.367,20.921,20.921v311.261 c0,11.555-9.367,20.921-20.921,20.921H56.232c-11.555,0-20.921-9.367-20.921-20.921V118.025 C35.31,106.47,44.677,97.103,56.232,97.103z"/><circle style="fill:#a4c2f7" cx="264.828" cy="273.655" r="141.241"/><linearGradient id="SVGID_1_" x1="-48.681" x2="-47.936" y1="652.345" y2="651.67" gradientTransform="matrix(256 0 0 -282.4828 12618.5859 184454.6563)" gradientUnits="userSpaceOnUse"><stop offset="0" style="stop-color:#d4e1f4"/><stop offset=".172" style="stop-color:#d4e1f4"/><stop offset=".2" style="stop-color:#d4e1f4"/><stop offset=".2" style="stop-color:#dae4f4"/><stop offset=".201" style="stop-color:#ebebf4"/><stop offset=".201" style="stop-color:#f6f1f4"/><stop offset=".202" style="stop-color:#fdf4f4"/><stop offset=".205" style="stop-color:#fff5f4"/><stop offset=".252" style="stop-color:#fff5f4"/><stop offset=".26" style="stop-color:#fff5f4"/><stop offset=".26" style="stop-color:#d4e1f4"/><stop offset=".397" style="stop-color:#d4e1f4"/><stop offset=".42" style="stop-color:#d4e1f4"/><stop offset=".42" style="stop-color:#dae4f4"/><stop offset=".421" style="stop-color:#ebebf4"/><stop offset=".421" style="stop-color:#f6f1f4"/><stop offset=".422" style="stop-color:#fdf4f4"/><stop offset=".425" style="stop-color:#fff5f4"/><stop offset=".489" style="stop-color:#fff5f4"/><stop offset=".5" style="stop-color:#fff5f4"/><stop offset=".5" style="stop-color:#f9f2f4"/><stop offset=".5" style="stop-color:#e8ebf4"/><stop offset=".5" style="stop-color:#dde5f4"/><stop offset=".5" style="stop-color:#d6e2f4"/><stop offset=".501" style="stop-color:#d4e1f4"/><stop offset=".706" style="stop-color:#d4e1f4"/><stop offset=".74" style="stop-color:#d4e1f4"/><stop offset=".741" style="stop-color:#fff5f4"/><stop offset=".835" style="stop-color:#fff5f4"/><stop offset=".85" style="stop-color:#fff5f4"/><stop offset=".851" style="stop-color:#d4e1f4"/></linearGradient><ellipse style="fill:url(#SVGID_1_)" cx="251.586" cy="273.655" rx="128" ry="141.241"/><g><path style="fill:#428dff" d="M482.25,459.034H29.75C13.327,459.017,0.018,445.708,0,429.284V118.026 c0.018-16.423,13.327-29.732,29.75-29.75h452.5c16.423,0.018,29.732,13.327,29.75,29.75v311.259 C511.982,445.708,498.673,459.017,482.25,459.034z M29.75,105.931c-6.678,0.005-12.09,5.417-12.095,12.095v311.259 c0.005,6.678,5.417,12.09,12.095,12.095h452.5c6.678-0.005,12.09-5.417,12.095-12.095V118.026 c-0.005-6.678-5.417-12.09-12.095-12.095H29.75z"/><path style="fill:#428dff" d="M264.828,423.724c-82.881,0-150.069-67.188-150.069-150.069s67.188-150.069,150.069-150.069 s150.069,67.188,150.069,150.069C414.804,356.498,347.67,423.632,264.828,423.724L264.828,423.724z M264.828,141.241 c-73.13,0-132.414,59.284-132.414,132.414s59.284,132.414,132.414,132.414s132.414-59.284,132.414-132.414 C397.162,200.558,337.925,141.321,264.828,141.241z"/><path style="fill:#428dff" d="M344.276,70.621H176.552c-4.875,0-8.828-3.952-8.828-8.828s3.952-8.828,8.828-8.828h167.724 c4.875,0,8.828,3.952,8.828,8.828S349.151,70.621,344.276,70.621z"/></g></g></svg>