<svg xmlns="http://www.w3.org/2000/svg" xmlns:xlink="http://www.w3.org/1999/xlink" id="Capa_1" x="0" y="0" version="1.1" viewBox="0 0 512 512" style="enable-background:new 0 0 512 512" xml:space="preserve"><g><rect x="8.533" y="42.667" style="fill:#7facfa" width="68.267" height="426.667"/><g><rect x="17.067" y="42.667" style="fill:#a4c2f7" width="34.133" height="426.667"/><rect x="76.8" y="42.667" style="fill:#a4c2f7" width="426.667" height="426.667"/></g><linearGradient id="SVGID_1_" x1="-48.897" x2="-47.853" y1="652.654" y2="651.694" gradientTransform="matrix(392.5334 0 0 -426.6667 19270.4668 278517.0313)" gradientUnits="userSpaceOnUse"><stop offset="0" style="stop-color:#d4e1f4"/><stop offset=".172" style="stop-color:#d4e1f4"/><stop offset=".2" style="stop-color:#d4e1f4"/><stop offset=".2" style="stop-color:#dae4f4"/><stop offset=".201" style="stop-color:#ebebf4"/><stop offset=".201" style="stop-color:#f6f1f4"/><stop offset=".202" style="stop-color:#fdf4f4"/><stop offset=".205" style="stop-color:#fff5f4"/><stop offset=".252" style="stop-color:#fff5f4"/><stop offset=".26" style="stop-color:#fff5f4"/><stop offset=".26" style="stop-color:#d4e1f4"/><stop offset=".397" style="stop-color:#d4e1f4"/><stop offset=".42" style="stop-color:#d4e1f4"/><stop offset=".42" style="stop-color:#dae4f4"/><stop offset=".421" style="stop-color:#ebebf4"/><stop offset=".421" style="stop-color:#f6f1f4"/><stop offset=".422" style="stop-color:#fdf4f4"/><stop offset=".425" style="stop-color:#fff5f4"/><stop offset=".489" style="stop-color:#fff5f4"/><stop offset=".5" style="stop-color:#fff5f4"/><stop offset=".5" style="stop-color:#f9f2f4"/><stop offset=".5" style="stop-color:#e8ebf4"/><stop offset=".5" style="stop-color:#dde5f4"/><stop offset=".5" style="stop-color:#d6e2f4"/><stop offset=".501" style="stop-color:#d4e1f4"/><stop offset=".706" style="stop-color:#d4e1f4"/><stop offset=".74" style="stop-color:#d4e1f4"/><stop offset=".741" style="stop-color:#fff5f4"/><stop offset=".835" style="stop-color:#fff5f4"/><stop offset=".85" style="stop-color:#fff5f4"/><stop offset=".851" style="stop-color:#d4e1f4"/></linearGradient><rect x="85.333" y="42.667" style="fill:url(#SVGID_1_)" width="392.533" height="426.667"/><polygon style="fill:#7facfa" points="392.533 170.667 230.4 196.267 230.4 145.067 392.533 119.467"/><polygon style="fill:#a4c2f7" points="366.933 170.667 230.4 196.267 230.4 145.067 366.933 119.467"/><g><ellipse style="fill:#7facfa" cx="345.6" cy="298.667" rx="46.933" ry="42.667"/><ellipse style="fill:#7facfa" cx="183.467" cy="349.867" rx="46.933" ry="42.667"/></g><g><ellipse style="fill:#a4c2f7" cx="332.8" cy="298.667" rx="34.133" ry="42.667"/><ellipse style="fill:#a4c2f7" cx="170.667" cy="349.867" rx="34.133" ry="42.667"/></g><g><path style="fill:#428dff" d="M503.467,477.867H76.8c-2.264,0.001-4.435-0.897-6.035-2.498c-1.601-1.601-2.499-3.772-2.498-6.035 V42.667c-0.001-2.264,0.897-4.435,2.498-6.035c1.601-1.601,3.772-2.499,6.035-2.498h426.667c2.264-0.001,4.435,0.897,6.035,2.498 c1.601,1.601,2.499,3.772,2.498,6.035v426.667c0.001,2.264-0.897,4.435-2.498,6.035 C507.901,476.969,505.73,477.868,503.467,477.867z M85.333,460.8h409.6V51.2h-409.6V460.8z"/><path style="fill:#428dff" d="M76.8,477.867H8.533c-2.264,0.001-4.435-0.897-6.035-2.498c-1.601-1.601-2.499-3.772-2.498-6.035 V42.667c-0.001-2.264,0.897-4.435,2.498-6.035c1.601-1.601,3.772-2.499,6.035-2.498H76.8c2.264-0.001,4.435,0.897,6.035,2.498 c1.601,1.601,2.499,3.772,2.498,6.035v426.667c0.001,2.264-0.897,4.435-2.498,6.035C81.235,476.969,79.064,477.868,76.8,477.867z M17.067,460.8h51.2V51.2h-51.2V460.8z"/><path style="fill:#428dff" d="M230.4,204.8c-4.71-0.006-8.527-3.823-8.533-8.533v-51.2c-0.001-4.198,3.054-7.771,7.2-8.425 l162.133-25.6c2.466-0.405,4.985,0.306,6.875,1.942c1.899,1.619,2.992,3.988,2.992,6.483v51.2c0.001,4.198-3.054,7.771-7.2,8.425 l-162.133,25.6C231.293,204.765,230.847,204.801,230.4,204.8L230.4,204.8z M238.933,152.358v33.925L384,163.375V129.45 L238.933,152.358z"/><path style="fill:#428dff" d="M230.4,359.267c-2.264,0.001-4.435-0.897-6.035-2.498c-1.601-1.601-2.499-3.772-2.498-6.035 V173.108c0-4.713,3.821-8.533,8.533-8.533c4.713,0,8.533,3.821,8.533,8.533v177.625c0.001,2.264-0.897,4.435-2.498,6.035 C234.835,358.369,232.664,359.268,230.4,359.267z"/><path style="fill:#428dff" d="M392.533,307.2c-2.264,0.001-4.435-0.897-6.035-2.498c-1.601-1.601-2.499-3.772-2.498-6.035V128 c0-4.713,3.82-8.533,8.533-8.533s8.533,3.821,8.533,8.533v170.667c0.001,2.264-0.897,4.435-2.498,6.035 C396.968,306.303,394.797,307.201,392.533,307.2L392.533,307.2z"/><path style="fill:#428dff" d="M345.6,349.867c-29.425,1.097-54.21-21.781-55.467-51.2c1.257-29.419,26.042-52.297,55.467-51.2 c29.425-1.097,54.21,21.781,55.467,51.2C399.81,328.085,375.025,350.963,345.6,349.867L345.6,349.867z M345.6,264.533 c-19.997-1.086-37.134,14.146-38.4,34.133c1.266,19.987,18.403,35.219,38.4,34.133c19.997,1.086,37.134-14.146,38.4-34.133 C382.734,278.68,365.597,263.447,345.6,264.533L345.6,264.533z"/><path style="fill:#428dff" d="M183.467,401.067c-29.425,1.097-54.21-21.781-55.467-51.2c1.257-29.419,26.042-52.297,55.467-51.2 c29.425-1.097,54.21,21.781,55.467,51.2C237.676,379.285,212.892,402.163,183.467,401.067L183.467,401.067z M183.467,315.733 c-19.997-1.086-37.134,14.146-38.4,34.133c1.266,19.987,18.403,35.219,38.4,34.133c19.997,1.086,37.134-14.146,38.4-34.133 C220.601,329.88,203.464,314.647,183.467,315.733L183.467,315.733z"/></g></g></svg>