<svg xmlns="http://www.w3.org/2000/svg" xmlns:xlink="http://www.w3.org/1999/xlink" id="Capa_1" x="0" y="0" version="1.1" viewBox="0 0 512.004 512.004" style="enable-background:new 0 0 512.004 512.004" xml:space="preserve"><g><polygon style="fill:#a4c2f7" points="256.002 30.324 12.193 383.847 251.565 383.847 499.812 383.847"/><polygon style="fill:#e3e7f2" points="457.779 383.847 256.002 91.276 54.225 383.847"/><g><path style="fill:#428dff" d="M499.812,396.038H12.193c-4.53,0.003-8.688-2.508-10.795-6.519s-1.814-8.859,0.759-12.588 l243.81-353.524c2.389-3.129,6.1-4.964,10.036-4.964c3.936,0,7.647,1.836,10.036,4.964l243.81,353.524 c2.574,3.729,2.866,8.577,0.759,12.588C508.5,393.53,504.342,396.041,499.812,396.038L499.812,396.038z M35.407,371.657h441.19 L256.002,51.8L35.407,371.657z"/><path style="fill:#428dff" d="M499.812,493.562H12.193c-6.733,0-12.19-5.458-12.19-12.19s5.458-12.19,12.19-12.19h487.619 c6.733,0,12.19,5.458,12.19,12.19S506.544,493.562,499.812,493.562z"/></g></g></svg>