<svg xmlns="http://www.w3.org/2000/svg" xmlns:xlink="http://www.w3.org/1999/xlink" id="Capa_1" x="0" y="0" version="1.1" viewBox="0 0 512 512" style="enable-background:new 0 0 512 512" xml:space="preserve"><g><circle style="fill:#a4c2f7" cx="256" cy="256" r="247.467"/><linearGradient id="SVGID_1_" x1="-48.764" x2="-48.015" y1="652.555" y2="651.883" gradientTransform="matrix(443.7334 0 0 -494.9333 21728.0684 323061.0313)" gradientUnits="userSpaceOnUse"><stop offset="0" style="stop-color:#d4e1f4"/><stop offset=".172" style="stop-color:#d4e1f4"/><stop offset=".2" style="stop-color:#d4e1f4"/><stop offset=".2" style="stop-color:#dae4f4"/><stop offset=".201" style="stop-color:#ebebf4"/><stop offset=".201" style="stop-color:#f6f1f4"/><stop offset=".202" style="stop-color:#fdf4f4"/><stop offset=".205" style="stop-color:#fff5f4"/><stop offset=".252" style="stop-color:#fff5f4"/><stop offset=".26" style="stop-color:#fff5f4"/><stop offset=".26" style="stop-color:#d4e1f4"/><stop offset=".397" style="stop-color:#d4e1f4"/><stop offset=".42" style="stop-color:#d4e1f4"/><stop offset=".42" style="stop-color:#dae4f4"/><stop offset=".421" style="stop-color:#ebebf4"/><stop offset=".421" style="stop-color:#f6f1f4"/><stop offset=".422" style="stop-color:#fdf4f4"/><stop offset=".425" style="stop-color:#fff5f4"/><stop offset=".489" style="stop-color:#fff5f4"/><stop offset=".5" style="stop-color:#fff5f4"/><stop offset=".5" style="stop-color:#f9f2f4"/><stop offset=".5" style="stop-color:#e8ebf4"/><stop offset=".5" style="stop-color:#dde5f4"/><stop offset=".5" style="stop-color:#d6e2f4"/><stop offset=".501" style="stop-color:#d4e1f4"/><stop offset=".706" style="stop-color:#d4e1f4"/><stop offset=".74" style="stop-color:#d4e1f4"/><stop offset=".741" style="stop-color:#fff5f4"/><stop offset=".835" style="stop-color:#fff5f4"/><stop offset=".85" style="stop-color:#fff5f4"/><stop offset=".851" style="stop-color:#d4e1f4"/></linearGradient><ellipse style="fill:url(#SVGID_1_)" cx="256" cy="256" rx="221.867" ry="247.467"/><path style="fill:#fff" d="M34.133,256C34.133,119.327,133.467,8.533,256,8.533C119.328,8.533,8.533,119.328,8.533,256 S119.328,503.467,256,503.467C133.467,503.467,34.133,392.672,34.133,256z"/><rect x="290.133" y="128" style="fill:#7facfa" width="51.2" height="256"/><rect x="290.133" y="128" style="fill:#a4c2f7" width="25.6" height="256"/><rect x="170.667" y="128" style="fill:#7facfa" width="51.2" height="256"/><rect x="170.667" y="128" style="fill:#a4c2f7" width="25.6" height="256"/><g><path style="fill:#428dff" d="M256,512C114.615,512,0,397.385,0,256S114.615,0,256,0s256,114.615,256,256 C511.84,397.319,397.319,511.84,256,512z M256,17.067C124.041,17.067,17.067,124.041,17.067,256S124.041,494.933,256,494.933 S494.933,387.959,494.933,256C494.785,124.102,387.898,17.215,256,17.067z"/><path style="fill:#428dff" d="M341.333,392.533h-51.2c-2.263,0.001-4.434-0.898-6.035-2.499c-1.6-1.6-2.499-3.771-2.499-6.035 V128c-0.001-2.263,0.898-4.434,2.499-6.035s3.771-2.499,6.035-2.499h51.2c2.263-0.001,4.434,0.898,6.035,2.499 c1.6,1.6,2.499,3.771,2.499,6.035v256c0.001,2.263-0.898,4.434-2.499,6.035C345.768,391.635,343.597,392.534,341.333,392.533z M298.667,375.467H332.8V136.533h-34.133V375.467z"/><path style="fill:#428dff" d="M221.867,392.533h-51.2c-2.263,0.001-4.434-0.898-6.035-2.499c-1.6-1.6-2.499-3.771-2.499-6.035 V128c-0.001-2.263,0.898-4.434,2.499-6.035c1.6-1.6,3.771-2.499,6.035-2.499h51.2c2.263-0.001,4.434,0.898,6.035,2.499 c1.6,1.6,2.499,3.771,2.499,6.035v256c0.001,2.263-0.898,4.434-2.499,6.035C226.301,391.635,224.13,392.534,221.867,392.533z M179.2,375.467h34.133V136.533H179.2V375.467z"/></g></g></svg>