<svg xmlns="http://www.w3.org/2000/svg" xmlns:xlink="http://www.w3.org/1999/xlink" id="Capa_1" x="0" y="0" version="1.1" viewBox="0 0 512 512" style="enable-background:new 0 0 512 512" xml:space="preserve"><g><circle style="fill:#a4c2f7" cx="256" cy="256" r="247.467"/><linearGradient id="SVGID_1_" x1="-48.764" x2="-48.015" y1="652.555" y2="651.883" gradientTransform="matrix(443.7334 0 0 -494.9333 21728.0684 323061.0313)" gradientUnits="userSpaceOnUse"><stop offset="0" style="stop-color:#d4e1f4"/><stop offset=".172" style="stop-color:#d4e1f4"/><stop offset=".2" style="stop-color:#d4e1f4"/><stop offset=".2" style="stop-color:#dae4f4"/><stop offset=".201" style="stop-color:#ebebf4"/><stop offset=".201" style="stop-color:#f6f1f4"/><stop offset=".202" style="stop-color:#fdf4f4"/><stop offset=".205" style="stop-color:#fff5f4"/><stop offset=".252" style="stop-color:#fff5f4"/><stop offset=".26" style="stop-color:#fff5f4"/><stop offset=".26" style="stop-color:#d4e1f4"/><stop offset=".397" style="stop-color:#d4e1f4"/><stop offset=".42" style="stop-color:#d4e1f4"/><stop offset=".42" style="stop-color:#dae4f4"/><stop offset=".421" style="stop-color:#ebebf4"/><stop offset=".421" style="stop-color:#f6f1f4"/><stop offset=".422" style="stop-color:#fdf4f4"/><stop offset=".425" style="stop-color:#fff5f4"/><stop offset=".489" style="stop-color:#fff5f4"/><stop offset=".5" style="stop-color:#fff5f4"/><stop offset=".5" style="stop-color:#f9f2f4"/><stop offset=".5" style="stop-color:#e8ebf4"/><stop offset=".5" style="stop-color:#dde5f4"/><stop offset=".5" style="stop-color:#d6e2f4"/><stop offset=".501" style="stop-color:#d4e1f4"/><stop offset=".706" style="stop-color:#d4e1f4"/><stop offset=".74" style="stop-color:#d4e1f4"/><stop offset=".741" style="stop-color:#fff5f4"/><stop offset=".835" style="stop-color:#fff5f4"/><stop offset=".85" style="stop-color:#fff5f4"/><stop offset=".851" style="stop-color:#d4e1f4"/></linearGradient><ellipse style="fill:url(#SVGID_1_)" cx="256" cy="256" rx="221.867" ry="247.467"/><path style="fill:#fff" d="M34.133,256C34.133,119.327,133.467,8.533,256,8.533C119.328,8.533,8.533,119.328,8.533,256 S119.328,503.467,256,503.467C133.467,503.467,34.133,392.672,34.133,256z"/><polygon style="fill:#7facfa" points="469.333 256 281.6 128 281.6 253.67 281.6 384"/><path style="fill:#a4c2f7" d="M338.99,344.493c0.215-0.495,0.474-0.969,0.773-1.418c6.607-8.466,15.317-15.052,25.263-19.103 c4.166-3.191,8.277-6.436,12.587-9.486c26.465-18.727,56.083-35.231,83.852-52.015c1.233-3.559,2.16-7.217,2.769-10.933 c-24.546-20.203-50.816-38.213-78.509-53.824c-27.051-15.45-53.263-32.325-78.524-50.555v221.247 C318.155,360.794,328.703,352.775,338.99,344.493z"/><polygon style="fill:#7facfa" points="281.6 256 93.867 128 93.867 253.67 93.867 384"/><path style="fill:#a4c2f7" d="M151.256,344.493c0.215-0.495,0.474-0.969,0.773-1.418c6.607-8.466,15.317-15.052,25.263-19.103 c4.166-3.191,8.277-6.436,12.587-9.486c26.465-18.727,56.083-35.231,83.852-52.015c1.233-3.559,2.16-7.217,2.769-10.933 c-24.546-20.203-50.816-38.213-78.509-53.824c-27.051-15.45-53.263-32.325-78.524-50.555v221.247 C130.421,360.794,140.969,352.775,151.256,344.493z"/><g><path style="fill:#428dff" d="M281.6,392.533c-4.71-0.007-8.527-3.823-8.533-8.533V128c0.003-3.162,1.753-6.064,4.549-7.541 c2.796-1.477,6.179-1.288,8.793,0.491l187.733,128c2.331,1.59,3.725,4.229,3.725,7.05c0,2.821-1.394,5.46-3.725,7.05l-187.733,128 C284.991,392.016,283.315,392.533,281.6,392.533z M290.133,144.15v223.7L454.183,256L290.133,144.15z"/><path style="fill:#428dff" d="M93.867,392.533c-4.71-0.007-8.527-3.823-8.533-8.533V128c0.003-3.162,1.753-6.064,4.549-7.541 c2.796-1.477,6.179-1.288,8.793,0.491l187.733,128c2.331,1.59,3.725,4.229,3.725,7.05c0,2.821-1.394,5.46-3.725,7.05l-187.733,128 C97.258,392.016,95.582,392.533,93.867,392.533z M102.4,144.15v223.7L266.45,256L102.4,144.15z"/><path style="fill:#428dff" d="M256,512C114.615,512,0,397.385,0,256S114.615,0,256,0s256,114.615,256,256 C511.84,397.319,397.319,511.84,256,512z M256,17.067C124.041,17.067,17.067,124.041,17.067,256S124.041,494.933,256,494.933 S494.933,387.959,494.933,256C494.785,124.102,387.898,17.215,256,17.067z"/></g></g></svg>