<svg xmlns="http://www.w3.org/2000/svg" xmlns:xlink="http://www.w3.org/1999/xlink" id="Capa_1" x="0" y="0" version="1.1" viewBox="0 0 512 512" style="enable-background:new 0 0 512 512" xml:space="preserve"><g><circle style="fill:#a4c2f7" cx="256" cy="256" r="247.467"/><linearGradient id="SVGID_1_" x1="-48.764" x2="-48.015" y1="652.555" y2="651.883" gradientTransform="matrix(443.7334 0 0 -494.9333 21728.0684 323061.0313)" gradientUnits="userSpaceOnUse"><stop offset="0" style="stop-color:#d4e1f4"/><stop offset=".172" style="stop-color:#d4e1f4"/><stop offset=".2" style="stop-color:#d4e1f4"/><stop offset=".2" style="stop-color:#dae4f4"/><stop offset=".201" style="stop-color:#ebebf4"/><stop offset=".201" style="stop-color:#f6f1f4"/><stop offset=".202" style="stop-color:#fdf4f4"/><stop offset=".205" style="stop-color:#fff5f4"/><stop offset=".252" style="stop-color:#fff5f4"/><stop offset=".26" style="stop-color:#fff5f4"/><stop offset=".26" style="stop-color:#d4e1f4"/><stop offset=".397" style="stop-color:#d4e1f4"/><stop offset=".42" style="stop-color:#d4e1f4"/><stop offset=".42" style="stop-color:#dae4f4"/><stop offset=".421" style="stop-color:#ebebf4"/><stop offset=".421" style="stop-color:#f6f1f4"/><stop offset=".422" style="stop-color:#fdf4f4"/><stop offset=".425" style="stop-color:#fff5f4"/><stop offset=".489" style="stop-color:#fff5f4"/><stop offset=".5" style="stop-color:#fff5f4"/><stop offset=".5" style="stop-color:#f9f2f4"/><stop offset=".5" style="stop-color:#e8ebf4"/><stop offset=".5" style="stop-color:#dde5f4"/><stop offset=".5" style="stop-color:#d6e2f4"/><stop offset=".501" style="stop-color:#d4e1f4"/><stop offset=".706" style="stop-color:#d4e1f4"/><stop offset=".74" style="stop-color:#d4e1f4"/><stop offset=".741" style="stop-color:#fff5f4"/><stop offset=".835" style="stop-color:#fff5f4"/><stop offset=".85" style="stop-color:#fff5f4"/><stop offset=".851" style="stop-color:#d4e1f4"/></linearGradient><ellipse style="fill:url(#SVGID_1_)" cx="256" cy="256" rx="221.867" ry="247.467"/><path style="fill:#fff" d="M34.133,256C34.133,119.327,133.467,8.533,256,8.533C119.328,8.533,8.533,119.328,8.533,256 S119.328,503.467,256,503.467C133.467,503.467,34.133,392.672,34.133,256z"/><polygon style="fill:#7facfa" points="42.667 256 230.4 384 230.4 258.33 230.4 128"/><path style="fill:#a4c2f7" d="M173.01,167.507c-0.215,0.495-0.474,0.969-0.773,1.418c-6.607,8.466-15.317,15.052-25.263,19.103 c-4.166,3.191-8.277,6.436-12.587,9.486c-26.465,18.727-56.083,35.231-83.852,52.015c-1.233,3.559-2.16,7.217-2.769,10.934 c24.545,20.202,50.816,38.213,78.509,53.823c27.051,15.45,53.263,32.325,78.524,50.555V143.595 C193.845,151.206,183.297,159.225,173.01,167.507z"/><polygon style="fill:#7facfa" points="230.4 256 418.133 384 418.133 258.33 418.133 128"/><path style="fill:#a4c2f7" d="M360.744,167.507c-0.215,0.495-0.474,0.969-0.773,1.418c-6.607,8.466-15.317,15.052-25.263,19.103 c-4.166,3.191-8.277,6.436-12.587,9.486c-26.465,18.727-56.083,35.231-83.852,52.015c-1.233,3.559-2.16,7.217-2.769,10.933 c24.546,20.203,50.816,38.213,78.509,53.824c27.051,15.45,53.263,32.325,78.524,50.555V143.595 C381.579,151.206,371.031,159.225,360.744,167.507z"/><g><path style="fill:#428dff" d="M230.4,392.533c-1.715,0-3.391-0.517-4.808-1.483l-187.733-128c-2.331-1.59-3.725-4.229-3.725-7.05 c0-2.821,1.394-5.46,3.725-7.05l187.733-128c2.614-1.779,5.997-1.968,8.793-0.491c2.796,1.477,4.546,4.379,4.549,7.541v256 C238.927,388.71,235.11,392.527,230.4,392.533z M57.817,256l164.05,111.85v-223.7L57.817,256z"/><path style="fill:#428dff" d="M418.133,392.533c-1.715,0-3.391-0.517-4.808-1.483l-187.733-128 c-2.331-1.59-3.725-4.229-3.725-7.05c0-2.821,1.394-5.46,3.725-7.05l187.733-128c2.614-1.779,5.997-1.968,8.793-0.491 c2.796,1.477,4.546,4.379,4.549,7.541v256C426.66,388.71,422.843,392.527,418.133,392.533L418.133,392.533z M245.55,256 L409.6,367.85v-223.7L245.55,256z"/><path style="fill:#428dff" d="M256,512C114.615,512,0,397.385,0,256S114.615,0,256,0s256,114.615,256,256 C511.84,397.319,397.319,511.84,256,512z M256,17.067C124.041,17.067,17.067,124.041,17.067,256S124.041,494.933,256,494.933 S494.933,387.959,494.933,256C494.785,124.102,387.898,17.215,256,17.067z"/></g></g></svg>