<svg xmlns="http://www.w3.org/2000/svg" xmlns:xlink="http://www.w3.org/1999/xlink" id="Capa_1" x="0" y="0" version="1.1" viewBox="0 0 512 512" style="enable-background:new 0 0 512 512" xml:space="preserve"><g><circle style="fill:#a4c2f7" cx="256" cy="256" r="246.154"/><linearGradient id="SVGID_1_" x1="-48.765" x2="-48.008" y1="652.551" y2="651.885" gradientTransform="matrix(433.2308 0 0 -492.3077 21218.6934 321347.7813)" gradientUnits="userSpaceOnUse"><stop offset="0" style="stop-color:#d4e1f4"/><stop offset=".172" style="stop-color:#d4e1f4"/><stop offset=".2" style="stop-color:#d4e1f4"/><stop offset=".2" style="stop-color:#dae4f4"/><stop offset=".201" style="stop-color:#ebebf4"/><stop offset=".201" style="stop-color:#f6f1f4"/><stop offset=".202" style="stop-color:#fdf4f4"/><stop offset=".205" style="stop-color:#fff5f4"/><stop offset=".252" style="stop-color:#fff5f4"/><stop offset=".26" style="stop-color:#fff5f4"/><stop offset=".26" style="stop-color:#d4e1f4"/><stop offset=".397" style="stop-color:#d4e1f4"/><stop offset=".42" style="stop-color:#d4e1f4"/><stop offset=".42" style="stop-color:#dae4f4"/><stop offset=".421" style="stop-color:#ebebf4"/><stop offset=".421" style="stop-color:#f6f1f4"/><stop offset=".422" style="stop-color:#fdf4f4"/><stop offset=".425" style="stop-color:#fff5f4"/><stop offset=".489" style="stop-color:#fff5f4"/><stop offset=".5" style="stop-color:#fff5f4"/><stop offset=".5" style="stop-color:#f9f2f4"/><stop offset=".5" style="stop-color:#e8ebf4"/><stop offset=".5" style="stop-color:#dde5f4"/><stop offset=".5" style="stop-color:#d6e2f4"/><stop offset=".501" style="stop-color:#d4e1f4"/><stop offset=".706" style="stop-color:#d4e1f4"/><stop offset=".74" style="stop-color:#d4e1f4"/><stop offset=".741" style="stop-color:#fff5f4"/><stop offset=".835" style="stop-color:#fff5f4"/><stop offset=".85" style="stop-color:#fff5f4"/><stop offset=".851" style="stop-color:#d4e1f4"/></linearGradient><ellipse style="fill:url(#SVGID_1_)" cx="256" cy="256" rx="216.615" ry="246.154"/><path style="fill:#fff" d="M39.385,256C39.385,120.053,136.367,9.846,256,9.846C120.053,9.846,9.846,120.053,9.846,256 S120.053,502.154,256,502.154C136.367,502.154,39.385,391.947,39.385,256z"/><polygon style="fill:#7facfa" points="305.231 344.615 157.538 254.326 305.231 169.058"/><path style="fill:#a4c2f7" d="M232.267,208.457c-0.803,1.026-1.782,1.902-2.891,2.586c-14.75,9.063-29.213,18.589-44.308,27.077 c-1.47,0.846-3.121,1.329-4.815,1.409c-0.408,0.495-0.855,0.966-1.254,1.466c-8.569,10.74-10.708,9.668-3.531,22.269 c8.357,14.668,30.828,20.99,45.173,29.457c18.079,10.671,37.57,19.74,55.05,31.476V181.37 C262.808,192.73,248.136,201.882,232.267,208.457z"/><g><path style="fill:#428dff" d="M256,512C114.615,512,0,397.385,0,256S114.615,0,256,0s256,114.615,256,256 C511.843,397.32,397.32,511.843,256,512z M256,19.692C125.491,19.692,19.692,125.491,19.692,256S125.491,492.308,256,492.308 S492.308,386.509,492.308,256C492.158,125.553,386.447,19.842,256,19.692z"/><path style="fill:#428dff" d="M305.231,354.462c-1.812,0-3.588-0.499-5.135-1.442l-147.692-90.289 c-2.965-1.812-4.755-5.052-4.712-8.526c0.043-3.474,1.914-6.669,4.923-8.406l147.692-85.269c3.047-1.759,6.8-1.759,9.847,0 c3.047,1.759,4.923,5.01,4.922,8.528v175.558C315.076,350.053,310.668,354.461,305.231,354.462L305.231,354.462z M176.807,254.567 l118.577,72.49V186.115L176.807,254.567z"/></g></g></svg>