<svg xmlns="http://www.w3.org/2000/svg" xmlns:xlink="http://www.w3.org/1999/xlink" id="Capa_1" x="0" y="0" version="1.1" viewBox="0 0 511.997 511.997" style="enable-background:new 0 0 511.997 511.997" xml:space="preserve"><g><path style="fill:#fff" d="M69.132,314.181h128.685V197.817H69.132c-31.864,0.377-57.497,26.315-57.497,58.182 S37.268,313.803,69.132,314.181L69.132,314.181z"/><path style="fill:#a4c2f7" d="M442.865,197.817H314.181v116.364h128.685c31.864-0.377,57.497-26.315,57.497-58.182 S474.73,198.194,442.865,197.817L442.865,197.817z"/><path style="fill:#e3e7f2" d="M407.956,197.817H104.041c-31.864,0.377-57.497,26.315-57.497,58.182s25.633,57.805,57.497,58.182 h303.915c31.864-0.377,57.497-26.315,57.497-58.182S439.821,198.194,407.956,197.817L407.956,197.817z"/><path style="fill:#428dff" d="M442.862,325.817H69.135C30.843,325.44,0,294.292,0,255.999s30.843-69.442,69.135-69.818h373.727 c38.292,0.376,69.135,31.525,69.135,69.818S481.154,325.44,442.862,325.817z M69.135,209.453 c-25.437,0.377-45.86,21.105-45.86,46.545c0,25.44,20.423,46.168,45.86,46.545h373.727c25.437-0.377,45.86-21.105,45.86-46.545 c0-25.44-20.423-46.168-45.86-46.545H69.135z"/></g></svg>