<svg xmlns="http://www.w3.org/2000/svg" xmlns:xlink="http://www.w3.org/1999/xlink" id="Capa_1" x="0" y="0" version="1.1" viewBox="0 0 512 512" style="enable-background:new 0 0 512 512" xml:space="preserve"><g><path style="fill:#fff" d="M148.523,8.533h98.944c16.047,0,29.056,13.009,29.056,29.056v436.821 c0,16.047-13.009,29.056-29.056,29.056h-98.944c-16.047,0-29.056-13.009-29.056-29.056V37.589 C119.467,21.542,132.475,8.533,148.523,8.533z"/><path style="fill:#a4c2f7" d="M273.067,8.533h98.944c16.047,0,29.056,13.009,29.056,29.056v436.821 c0,16.047-13.009,29.056-29.056,29.056h-98.944c-16.047,0-29.056-13.009-29.056-29.056V37.589 C244.011,21.542,257.02,8.533,273.067,8.533z"/><path style="fill:#e3e7f2" d="M174.123,8.533h163.755c16.047,0,29.056,13.009,29.056,29.056v436.821 c0,16.047-13.009,29.056-29.056,29.056H174.123c-16.047,0-29.056-13.009-29.056-29.056V37.589 C145.067,21.542,158.075,8.533,174.123,8.533z"/><rect x="235.477" y="59.733" style="fill:#a4c2f7" width="157.056" height="341.333"/><linearGradient id="SVGID_1_" x1="-48.914" x2="-47.645" y1="652.505" y2="651.68" gradientTransform="matrix(221.8667 0 0 -341.3333 10967.5293 222811.4063)" gradientUnits="userSpaceOnUse"><stop offset="0" style="stop-color:#d4e1f4"/><stop offset=".172" style="stop-color:#d4e1f4"/><stop offset=".2" style="stop-color:#d4e1f4"/><stop offset=".2" style="stop-color:#dae4f4"/><stop offset=".201" style="stop-color:#ebebf4"/><stop offset=".201" style="stop-color:#f6f1f4"/><stop offset=".202" style="stop-color:#fdf4f4"/><stop offset=".205" style="stop-color:#fff5f4"/><stop offset=".252" style="stop-color:#fff5f4"/><stop offset=".26" style="stop-color:#fff5f4"/><stop offset=".26" style="stop-color:#d4e1f4"/><stop offset=".397" style="stop-color:#d4e1f4"/><stop offset=".42" style="stop-color:#d4e1f4"/><stop offset=".42" style="stop-color:#dae4f4"/><stop offset=".421" style="stop-color:#ebebf4"/><stop offset=".421" style="stop-color:#f6f1f4"/><stop offset=".422" style="stop-color:#fdf4f4"/><stop offset=".425" style="stop-color:#fff5f4"/><stop offset=".489" style="stop-color:#fff5f4"/><stop offset=".5" style="stop-color:#fff5f4"/><stop offset=".5" style="stop-color:#f9f2f4"/><stop offset=".5" style="stop-color:#e8ebf4"/><stop offset=".5" style="stop-color:#dde5f4"/><stop offset=".5" style="stop-color:#d6e2f4"/><stop offset=".501" style="stop-color:#d4e1f4"/><stop offset=".706" style="stop-color:#d4e1f4"/><stop offset=".74" style="stop-color:#d4e1f4"/><stop offset=".741" style="stop-color:#fff5f4"/><stop offset=".835" style="stop-color:#fff5f4"/><stop offset=".85" style="stop-color:#fff5f4"/><stop offset=".851" style="stop-color:#d4e1f4"/></linearGradient><rect x="145.067" y="59.733" style="fill:url(#SVGID_1_)" width="221.867" height="341.333"/><g><circle style="fill:#a4c2f7" cx="256" cy="452.267" r="25.6"/><path style="fill:#a4c2f7" d="M162.458,102.571h33.485c4.892,0,8.858,3.966,8.858,8.858v33.485c0,4.892-3.966,8.858-8.858,8.858 h-33.485c-4.892,0-8.858-3.966-8.858-8.858v-33.485C153.6,106.536,157.566,102.571,162.458,102.571z"/><path style="fill:#a4c2f7" d="M239.258,179.2h33.485c4.892,0,8.858,3.966,8.858,8.858v33.485c0,4.892-3.966,8.858-8.858,8.858 h-33.485c-4.892,0-8.858-3.966-8.858-8.858v-33.485C230.4,183.166,234.366,179.2,239.258,179.2z"/><path style="fill:#a4c2f7" d="M316.058,256h33.485c4.892,0,8.858,3.966,8.858,8.858v33.485c0,4.892-3.966,8.858-8.858,8.858 h-33.485c-4.892,0-8.858-3.966-8.858-8.858v-33.485C307.2,259.966,311.166,256,316.058,256z"/><path style="fill:#a4c2f7" d="M162.458,256h33.485c4.892,0,8.858,3.966,8.858,8.858v33.485c0,4.892-3.966,8.858-8.858,8.858 h-33.485c-4.892,0-8.858-3.966-8.858-8.858v-33.485C153.6,259.966,157.566,256,162.458,256z"/><path style="fill:#a4c2f7" d="M316.058,102.4h33.485c4.892,0,8.858,3.966,8.858,8.858v33.485c0,4.892-3.966,8.858-8.858,8.858 h-33.485c-4.892,0-8.858-3.966-8.858-8.858v-33.485C307.2,106.366,311.166,102.4,316.058,102.4z"/></g><g><path style="fill:#428dff" d="M363.475,512h-214.95c-20.751-0.024-37.567-16.84-37.592-37.592V37.592 C110.958,16.84,127.774,0.024,148.525,0h214.95c20.751,0.024,37.568,16.84,37.592,37.592v436.817 C401.043,495.16,384.226,511.976,363.475,512z M148.525,17.067c-11.33,0.013-20.512,9.195-20.525,20.525v436.817 c0.013,11.33,9.195,20.512,20.525,20.525h214.95c11.33-0.013,20.512-9.195,20.525-20.525V37.592 c-0.013-11.33-9.195-20.512-20.525-20.525H148.525z"/><path style="fill:#428dff" d="M256,486.4c-18.851,0-34.133-15.282-34.133-34.133c0-18.851,15.282-34.133,34.133-34.133 s34.133,15.282,34.133,34.133C290.113,471.11,274.843,486.38,256,486.4L256,486.4z M256,435.2 c-9.426,0-17.067,7.641-17.067,17.067s7.641,17.067,17.067,17.067c9.426,0,17.067-7.641,17.067-17.067 C273.056,442.845,265.421,435.211,256,435.2z"/><path style="fill:#428dff" d="M392.533,409.6H119.467c-4.713,0-8.533-3.821-8.533-8.533s3.821-8.533,8.533-8.533h273.067 c4.713,0,8.533,3.82,8.533,8.533S397.246,409.6,392.533,409.6z"/><path style="fill:#428dff" d="M392.533,68.267H119.467c-4.713,0-8.533-3.821-8.533-8.533s3.821-8.533,8.533-8.533h273.067 c4.713,0,8.533,3.821,8.533,8.533S397.246,68.267,392.533,68.267z"/><path style="fill:#428dff" d="M256,42.667h-34.133c-4.713,0-8.533-3.821-8.533-8.533s3.821-8.533,8.533-8.533H256 c4.713,0,8.533,3.821,8.533,8.533S260.713,42.667,256,42.667z"/><path style="fill:#428dff" d="M290.133,42.667H281.6c-4.713,0-8.533-3.821-8.533-8.533s3.82-8.533,8.533-8.533h8.533 c4.713,0,8.533,3.821,8.533,8.533S294.846,42.667,290.133,42.667z"/><path style="fill:#428dff" d="M195.942,162.3h-33.483c-9.601-0.009-17.382-7.79-17.392-17.392v-33.483 c0.009-9.601,7.79-17.382,17.392-17.392h33.483c9.601,0.009,17.382,7.79,17.392,17.392v33.483 C213.324,154.51,205.543,162.29,195.942,162.3z M162.458,111.1l-0.325,33.808l33.808,0.325c0.179-0.002,0.323-0.146,0.325-0.325 v-33.483L162.458,111.1z"/><path style="fill:#428dff" d="M349.542,162.3h-33.483c-9.601-0.009-17.382-7.79-17.392-17.392v-33.483 c0.009-9.601,7.79-17.382,17.392-17.392h33.483c9.601,0.009,17.382,7.79,17.392,17.392v33.483 C366.924,154.51,359.143,162.29,349.542,162.3z M316.058,111.1l-0.325,33.808l33.808,0.325c0.179-0.002,0.323-0.146,0.325-0.325 v-33.483L316.058,111.1z"/><path style="fill:#428dff" d="M272.742,238.933h-33.483c-9.601-0.01-17.382-7.79-17.392-17.392v-33.483 c0.01-9.601,7.79-17.382,17.392-17.392h33.483c9.601,0.01,17.382,7.79,17.392,17.392v33.483 C290.124,231.143,282.343,238.924,272.742,238.933z M239.258,187.733l-0.325,33.808l33.808,0.325 c0.179-0.002,0.323-0.146,0.325-0.325v-33.483L239.258,187.733z"/><path style="fill:#428dff" d="M195.942,315.733h-33.483c-9.601-0.009-17.382-7.79-17.392-17.392v-33.483 c0.009-9.601,7.79-17.382,17.392-17.392h33.483c9.601,0.01,17.382,7.79,17.392,17.392v33.483 C213.324,307.943,205.543,315.724,195.942,315.733z M162.458,264.533l-0.325,33.808l33.808,0.325 c0.179-0.002,0.323-0.146,0.325-0.325v-33.483L162.458,264.533z"/><path style="fill:#428dff" d="M349.542,315.733h-33.483c-9.601-0.009-17.382-7.79-17.392-17.392v-33.483 c0.009-9.601,7.79-17.382,17.392-17.392h33.483c9.601,0.01,17.382,7.79,17.392,17.392v33.483 C366.924,307.943,359.143,315.724,349.542,315.733z M316.058,264.533l-0.325,33.808l33.808,0.325 c0.179-0.002,0.323-0.146,0.325-0.325v-33.483L316.058,264.533z"/></g><g><rect x="230.4" y="102.4" style="fill:#7facfa" width="51.2" height="51.2"/><rect x="153.6" y="179.2" style="fill:#7facfa" width="51.2" height="51.2"/><rect x="307.2" y="179.2" style="fill:#7facfa" width="51.2" height="51.2"/><rect x="230.4" y="256" style="fill:#7facfa" width="51.2" height="51.2"/></g><g><path style="fill:#428dff" d="M272.742,162.3h-33.483c-9.601-0.009-17.382-7.79-17.392-17.392v-33.483 c0.01-9.601,7.79-17.382,17.392-17.392h33.483c9.601,0.009,17.382,7.79,17.392,17.392v33.483 C290.124,154.51,282.343,162.29,272.742,162.3z M239.258,111.1l-0.325,33.808l33.808,0.325c0.179-0.002,0.323-0.146,0.325-0.325 v-33.483L239.258,111.1z"/><path style="fill:#428dff" d="M195.942,238.933h-33.483c-9.601-0.01-17.382-7.79-17.392-17.392v-33.483 c0.009-9.601,7.79-17.382,17.392-17.392h33.483c9.601,0.01,17.382,7.79,17.392,17.392v33.483 C213.324,231.143,205.543,238.924,195.942,238.933z M162.458,187.733l-0.325,33.808l33.808,0.325 c0.179-0.002,0.323-0.146,0.325-0.325v-33.483L162.458,187.733z"/><path style="fill:#428dff" d="M349.542,238.933h-33.483c-9.601-0.01-17.382-7.79-17.392-17.392v-33.483 c0.009-9.601,7.79-17.382,17.392-17.392h33.483c9.601,0.01,17.382,7.79,17.392,17.392v33.483 C366.924,231.143,359.143,238.924,349.542,238.933z M316.058,187.733l-0.325,33.808l33.808,0.325 c0.179-0.002,0.323-0.146,0.325-0.325v-33.483L316.058,187.733z"/><path style="fill:#428dff" d="M272.742,315.733h-33.483c-9.601-0.009-17.382-7.79-17.392-17.392v-33.483 c0.01-9.601,7.79-17.382,17.392-17.392h33.483c9.601,0.01,17.382,7.79,17.392,17.392v33.483 C290.124,307.943,282.343,315.724,272.742,315.733z M239.258,264.533l-0.325,33.808l33.808,0.325 c0.179-0.002,0.323-0.146,0.325-0.325v-33.483L239.258,264.533z"/></g></g></svg>