<svg xmlns="http://www.w3.org/2000/svg" xmlns:xlink="http://www.w3.org/1999/xlink" id="Capa_1" x="0" y="0" version="1.1" viewBox="0 0 512 512" style="enable-background:new 0 0 512 512" xml:space="preserve"><g><path style="fill:#a4c2f7" d="M183.44,8.533h98.944c16.047,0,29.056,13.009,29.056,29.056v436.821 c0,16.047-13.009,29.056-29.056,29.056H183.44c-16.047,0-29.056-13.009-29.056-29.056V37.589 C154.384,21.542,167.393,8.533,183.44,8.533z"/><path style="fill:#fff" d="M58.896,8.533h98.944c16.047,0,29.056,13.009,29.056,29.056v436.821 c0,16.047-13.009,29.056-29.056,29.056H58.896c-16.047,0-29.056-13.009-29.056-29.056V37.589 C29.84,21.542,42.849,8.533,58.896,8.533z"/><path style="fill:#e3e7f2" d="M84.496,8.533H248.25c16.047,0,29.056,13.009,29.056,29.056v436.821 c0,16.047-13.009,29.056-29.056,29.056H84.496c-16.047,0-29.056-13.009-29.056-29.056V37.589 C55.44,21.542,68.449,8.533,84.496,8.533z"/><linearGradient id="SVGID_1_" x1="-48.941" x2="-47.672" y1="652.505" y2="651.68" gradientTransform="matrix(221.8667 0 0 -341.3333 10883.8857 222811.4063)" gradientUnits="userSpaceOnUse"><stop offset="0" style="stop-color:#d4e1f4"/><stop offset=".172" style="stop-color:#d4e1f4"/><stop offset=".2" style="stop-color:#d4e1f4"/><stop offset=".2" style="stop-color:#dae4f4"/><stop offset=".201" style="stop-color:#ebebf4"/><stop offset=".201" style="stop-color:#f6f1f4"/><stop offset=".202" style="stop-color:#fdf4f4"/><stop offset=".205" style="stop-color:#fff5f4"/><stop offset=".252" style="stop-color:#fff5f4"/><stop offset=".26" style="stop-color:#fff5f4"/><stop offset=".26" style="stop-color:#d4e1f4"/><stop offset=".397" style="stop-color:#d4e1f4"/><stop offset=".42" style="stop-color:#d4e1f4"/><stop offset=".42" style="stop-color:#dae4f4"/><stop offset=".421" style="stop-color:#ebebf4"/><stop offset=".421" style="stop-color:#f6f1f4"/><stop offset=".422" style="stop-color:#fdf4f4"/><stop offset=".425" style="stop-color:#fff5f4"/><stop offset=".489" style="stop-color:#fff5f4"/><stop offset=".5" style="stop-color:#fff5f4"/><stop offset=".5" style="stop-color:#f9f2f4"/><stop offset=".5" style="stop-color:#e8ebf4"/><stop offset=".5" style="stop-color:#dde5f4"/><stop offset=".5" style="stop-color:#d6e2f4"/><stop offset=".501" style="stop-color:#d4e1f4"/><stop offset=".706" style="stop-color:#d4e1f4"/><stop offset=".74" style="stop-color:#d4e1f4"/><stop offset=".741" style="stop-color:#fff5f4"/><stop offset=".835" style="stop-color:#fff5f4"/><stop offset=".85" style="stop-color:#fff5f4"/><stop offset=".851" style="stop-color:#d4e1f4"/></linearGradient><rect x="55.44" y="59.733" style="fill:url(#SVGID_1_)" width="221.867" height="341.333"/><circle style="fill:#a4c2f7" cx="166.373" cy="452.267" r="25.6"/><g><path style="fill:#428dff" d="M273.848,512H58.898c-20.751-0.024-37.567-16.84-37.592-37.592V37.592 C21.331,16.84,38.147,0.024,58.898,0h214.95c20.751,0.024,37.568,16.84,37.592,37.592v150.125c0,4.713-3.82,8.533-8.533,8.533 s-8.533-3.821-8.533-8.533V37.592c-0.013-11.33-9.195-20.512-20.525-20.525H58.898c-11.33,0.013-20.512,9.195-20.525,20.525 v436.817c0.013,11.33,9.195,20.512,20.525,20.525h214.95c11.33-0.013,20.512-9.195,20.525-20.525V273.025 c0-4.713,3.821-8.533,8.533-8.533s8.533,3.82,8.533,8.533v201.383C311.416,495.16,294.599,511.976,273.848,512z"/><path style="fill:#428dff" d="M166.373,486.4c-18.851,0-34.133-15.282-34.133-34.133c0-18.851,15.282-34.133,34.133-34.133 s34.133,15.282,34.133,34.133C200.486,471.11,185.216,486.38,166.373,486.4L166.373,486.4z M166.373,435.2 c-9.426,0-17.067,7.641-17.067,17.067s7.641,17.067,17.067,17.067c9.426,0,17.067-7.641,17.067-17.067 C183.429,442.845,175.794,435.211,166.373,435.2z"/><path style="fill:#428dff" d="M302.906,409.6H29.84c-4.713,0-8.533-3.821-8.533-8.533s3.821-8.533,8.533-8.533h273.067 c4.713,0,8.533,3.82,8.533,8.533S307.619,409.6,302.906,409.6z"/><path style="fill:#428dff" d="M302.906,68.267H29.84c-4.713,0-8.533-3.821-8.533-8.533S25.127,51.2,29.84,51.2h273.067 c4.713,0,8.533,3.821,8.533,8.533S307.619,68.267,302.906,68.267z"/><path style="fill:#428dff" d="M166.373,42.667H132.24c-4.713,0-8.533-3.821-8.533-8.533s3.821-8.533,8.533-8.533h34.133 c4.713,0,8.533,3.821,8.533,8.533S171.086,42.667,166.373,42.667z"/><path style="fill:#428dff" d="M200.506,42.667h-8.533c-4.713,0-8.533-3.821-8.533-8.533s3.82-8.533,8.533-8.533h8.533 c4.713,0,8.533,3.821,8.533,8.533S205.219,42.667,200.506,42.667z"/><path style="fill:#428dff" d="M482.106,238.933H157.84c-4.713,0-8.533-3.821-8.533-8.533s3.821-8.533,8.533-8.533h324.267 c4.713,0,8.533,3.82,8.533,8.533S486.819,238.933,482.106,238.933z"/><path style="fill:#428dff" d="M482.106,238.933c-2.264,0.003-4.435-0.897-6.033-2.5l-102.4-102.4 c-3.281-3.341-3.256-8.701,0.054-12.012s8.671-3.335,12.012-0.054l102.4,102.4c2.44,2.44,3.169,6.11,1.849,9.298 C488.668,236.854,485.557,238.933,482.106,238.933z"/><path style="fill:#428dff" d="M379.706,341.333c-3.451-0.001-6.562-2.08-7.882-5.268s-0.591-6.858,1.849-9.298l102.4-102.4 c2.149-2.188,5.307-3.055,8.271-2.27c2.965,0.785,5.28,3.1,6.065,6.065c0.785,2.965-0.082,6.122-2.27,8.271l-102.4,102.4 C384.141,340.436,381.97,341.336,379.706,341.333z"/></g></g></svg>