<svg xmlns="http://www.w3.org/2000/svg" xmlns:xlink="http://www.w3.org/1999/xlink" id="Capa_1" x="0" y="0" version="1.1" viewBox="0 0 512 512" style="enable-background:new 0 0 512 512" xml:space="preserve"><g><rect x="256" y="469.333" style="fill:#a4c2f7" width="170.667" height="34.133"/><g><rect x="85.333" y="469.333" style="fill:#fff" width="170.667" height="34.133"/><rect x="85.333" y="8.533" style="fill:#fff" width="170.667" height="34.133"/></g><rect x="238.933" y="8.533" style="fill:#a4c2f7" width="187.733" height="34.133"/><g><rect x="110.933" y="469.333" style="fill:#e3e7f2" width="290.133" height="34.133"/><rect x="110.933" y="8.533" style="fill:#e3e7f2" width="290.133" height="34.133"/></g><path style="fill:#a4c2f7" d="M357.177,323.45L256,256v213.333h128v-95.763C384,353.43,373.934,334.622,357.177,323.45 L357.177,323.45z"/><g><path style="fill:#fff" d="M154.823,323.45L256,256v213.333H128v-95.763C128,353.43,138.066,334.622,154.823,323.45 L154.823,323.45z"/><path style="fill:#fff" d="M154.823,188.55L256,256V42.667H128v95.763C128,158.57,138.066,177.378,154.823,188.55z"/></g><linearGradient id="SVGID_1_" x1="-48.658" x2="-47.863" y1="652.013" y2="651.25" gradientTransform="matrix(204.8 0 0 -213.3333 10139.7979 139423.6719)" gradientUnits="userSpaceOnUse"><stop offset="0" style="stop-color:#d4e1f4"/><stop offset=".172" style="stop-color:#d4e1f4"/><stop offset=".2" style="stop-color:#d4e1f4"/><stop offset=".2" style="stop-color:#dae4f4"/><stop offset=".201" style="stop-color:#ebebf4"/><stop offset=".201" style="stop-color:#f6f1f4"/><stop offset=".202" style="stop-color:#fdf4f4"/><stop offset=".205" style="stop-color:#fff5f4"/><stop offset=".252" style="stop-color:#fff5f4"/><stop offset=".26" style="stop-color:#fff5f4"/><stop offset=".26" style="stop-color:#d4e1f4"/><stop offset=".397" style="stop-color:#d4e1f4"/><stop offset=".42" style="stop-color:#d4e1f4"/><stop offset=".42" style="stop-color:#dae4f4"/><stop offset=".421" style="stop-color:#ebebf4"/><stop offset=".421" style="stop-color:#f6f1f4"/><stop offset=".422" style="stop-color:#fdf4f4"/><stop offset=".425" style="stop-color:#fff5f4"/><stop offset=".489" style="stop-color:#fff5f4"/><stop offset=".5" style="stop-color:#fff5f4"/><stop offset=".5" style="stop-color:#f9f2f4"/><stop offset=".5" style="stop-color:#e8ebf4"/><stop offset=".5" style="stop-color:#dde5f4"/><stop offset=".5" style="stop-color:#d6e2f4"/><stop offset=".501" style="stop-color:#d4e1f4"/><stop offset=".706" style="stop-color:#d4e1f4"/><stop offset=".74" style="stop-color:#d4e1f4"/><stop offset=".741" style="stop-color:#fff5f4"/><stop offset=".835" style="stop-color:#fff5f4"/><stop offset=".85" style="stop-color:#fff5f4"/><stop offset=".851" style="stop-color:#d4e1f4"/></linearGradient><path style="fill:url(#SVGID_1_)" d="M331.576,323.451L256,256l-75.576,67.451c-16.758,11.172-26.824,29.98-26.824,50.12v95.762 h204.8v-95.762C358.4,353.431,348.334,334.623,331.576,323.451z"/><path style="fill:#a4c2f7" d="M256,42.667V256l101.177-67.45C373.934,177.378,384,158.57,384,138.429V42.667H256z"/><linearGradient id="SVGID_2_" x1="-48.441" x2="-47.647" y1="652.239" y2="651.476" gradientTransform="matrix(204.8 0 0 -213.3333 10139.7979 139210.3438)" gradientUnits="userSpaceOnUse"><stop offset="0" style="stop-color:#d4e1f4"/><stop offset=".172" style="stop-color:#d4e1f4"/><stop offset=".2" style="stop-color:#d4e1f4"/><stop offset=".2" style="stop-color:#dae4f4"/><stop offset=".201" style="stop-color:#ebebf4"/><stop offset=".201" style="stop-color:#f6f1f4"/><stop offset=".202" style="stop-color:#fdf4f4"/><stop offset=".205" style="stop-color:#fff5f4"/><stop offset=".252" style="stop-color:#fff5f4"/><stop offset=".26" style="stop-color:#fff5f4"/><stop offset=".26" style="stop-color:#d4e1f4"/><stop offset=".397" style="stop-color:#d4e1f4"/><stop offset=".42" style="stop-color:#d4e1f4"/><stop offset=".42" style="stop-color:#dae4f4"/><stop offset=".421" style="stop-color:#ebebf4"/><stop offset=".421" style="stop-color:#f6f1f4"/><stop offset=".422" style="stop-color:#fdf4f4"/><stop offset=".425" style="stop-color:#fff5f4"/><stop offset=".489" style="stop-color:#fff5f4"/><stop offset=".5" style="stop-color:#fff5f4"/><stop offset=".5" style="stop-color:#f9f2f4"/><stop offset=".5" style="stop-color:#e8ebf4"/><stop offset=".5" style="stop-color:#dde5f4"/><stop offset=".5" style="stop-color:#d6e2f4"/><stop offset=".501" style="stop-color:#d4e1f4"/><stop offset=".706" style="stop-color:#d4e1f4"/><stop offset=".74" style="stop-color:#d4e1f4"/><stop offset=".741" style="stop-color:#fff5f4"/><stop offset=".835" style="stop-color:#fff5f4"/><stop offset=".85" style="stop-color:#fff5f4"/><stop offset=".851" style="stop-color:#d4e1f4"/></linearGradient><path style="fill:url(#SVGID_2_)" d="M180.424,188.549L256,256l75.576-67.451c16.758-11.172,26.824-29.98,26.824-50.12V42.667 H153.6v95.762C153.6,158.569,163.666,177.377,180.424,188.549z"/><g><circle style="fill:#428dff" cx="256" cy="221.867" r="8.533"/><circle style="fill:#428dff" cx="281.6" cy="204.8" r="8.533"/><circle style="fill:#428dff" cx="230.4" cy="204.8" r="8.533"/><circle style="fill:#428dff" cx="204.8" cy="187.733" r="8.533"/><circle style="fill:#428dff" cx="307.2" cy="187.733" r="8.533"/><circle style="fill:#428dff" cx="332.8" cy="170.667" r="8.533"/><circle style="fill:#428dff" cx="179.2" cy="170.667" r="8.533"/><circle style="fill:#428dff" cx="256" cy="187.733" r="8.533"/><circle style="fill:#428dff" cx="256" cy="290.133" r="8.533"/><circle style="fill:#428dff" cx="256" cy="315.733" r="8.533"/><circle style="fill:#428dff" cx="256" cy="341.333" r="8.533"/><circle style="fill:#428dff" cx="256" cy="366.933" r="8.533"/><circle style="fill:#428dff" cx="256" cy="392.533" r="8.533"/><circle style="fill:#428dff" cx="256" cy="418.133" r="8.533"/><path style="fill:#428dff" d="M426.667,512H85.333c-2.263,0.001-4.434-0.898-6.035-2.499c-1.6-1.6-2.499-3.771-2.499-6.035 v-34.133c-0.001-2.263,0.898-4.434,2.499-6.035c1.6-1.6,3.771-2.499,6.035-2.499h341.333c2.263-0.001,4.434,0.898,6.035,2.499 c1.6,1.6,2.499,3.771,2.499,6.035v34.133c0.001,2.263-0.898,4.434-2.499,6.035C431.101,511.102,428.93,512.001,426.667,512z M93.867,494.933h324.267v-17.067H93.867V494.933z"/><path style="fill:#428dff" d="M384,477.867H128c-2.263,0.001-4.434-0.898-6.035-2.499s-2.499-3.771-2.499-6.035v-95.758 c-0.023-23.001,11.475-44.485,30.625-57.225l0,0l101.175-67.45c2.865-1.917,6.602-1.917,9.467,0l101.175,67.45 c19.15,12.74,30.648,34.224,30.625,57.225v95.758c0.001,2.263-0.898,4.434-2.499,6.035 C388.434,476.968,386.263,477.867,384,477.867L384,477.867z M136.533,460.8h238.933v-87.225 c0.016-17.293-8.628-33.446-23.025-43.025L256,266.258l-96.442,64.292c-14.397,9.579-23.041,25.732-23.025,43.025V460.8z"/><path style="fill:#428dff" d="M85.333,512H51.2c-4.713,0-8.533-3.82-8.533-8.533c0-4.713,3.821-8.533,8.533-8.533h34.133 c4.713,0,8.533,3.821,8.533,8.533C93.867,508.18,90.046,512,85.333,512z"/><path style="fill:#428dff" d="M460.8,512h-34.133c-4.713,0-8.533-3.82-8.533-8.533c0-4.713,3.82-8.533,8.533-8.533H460.8 c4.713,0,8.533,3.821,8.533,8.533C469.333,508.18,465.513,512,460.8,512z"/><path style="fill:#428dff" d="M426.667,51.2H85.333c-2.263,0.001-4.434-0.898-6.035-2.499c-1.6-1.6-2.499-3.771-2.499-6.035 V8.533c-0.001-2.263,0.898-4.434,2.499-6.035c1.6-1.6,3.771-2.499,6.035-2.499h341.333c2.263-0.001,4.434,0.898,6.035,2.499 c1.6,1.6,2.499,3.771,2.499,6.035v34.133c0.001,2.263-0.898,4.434-2.499,6.035C431.101,50.302,428.93,51.201,426.667,51.2z M93.867,34.133h324.267V17.067H93.867V34.133z"/><path style="fill:#428dff" d="M256,264.533c-1.685,0.002-3.332-0.497-4.733-1.434l-101.175-67.45l0,0 c-19.15-12.74-30.648-34.224-30.625-57.225V42.667c-0.001-2.263,0.898-4.434,2.499-6.035c1.6-1.6,3.771-2.499,6.035-2.499h256 c2.263-0.001,4.434,0.898,6.035,2.499c1.6,1.6,2.499,3.771,2.499,6.035v95.758c0.023,23.001-11.475,44.485-30.625,57.225 L260.733,263.1C259.332,264.036,257.685,264.535,256,264.533z M159.558,181.45L256,245.742l96.442-64.292 c14.397-9.579,23.041-25.732,23.025-43.025V51.2H136.533v87.225C136.517,155.718,145.161,171.871,159.558,181.45L159.558,181.45z"/><path style="fill:#428dff" d="M85.333,17.067H51.2c-4.713,0-8.533-3.821-8.533-8.533S46.487,0,51.2,0h34.133 c4.713,0,8.533,3.821,8.533,8.533S90.046,17.067,85.333,17.067z"/><path style="fill:#428dff" d="M460.8,17.067h-34.133c-4.713,0-8.533-3.821-8.533-8.533S421.954,0,426.667,0H460.8 c4.713,0,8.533,3.821,8.533,8.533S465.513,17.067,460.8,17.067z"/></g></g></svg>