<svg xmlns="http://www.w3.org/2000/svg" xmlns:xlink="http://www.w3.org/1999/xlink" id="Capa_1" x="0" y="0" version="1.1" viewBox="0 0 512 512" style="enable-background:new 0 0 512 512" xml:space="preserve"><g><path style="fill:#fff" d="M264.533,170.667l17.067-14.78V53.18c0-5.806-9.415-10.514-21.027-10.514H149.027 C137.415,42.667,128,47.374,128,53.18v209.372c0,5.807,9.415,10.515,21.027,10.515h111.546c11.613,0,21.027-4.707,21.027-10.515 v-77.105L264.533,170.667z"/><path style="fill:#7facfa" d="M256,437.144c0,36.631,9.415,66.323,21.028,66.323h85.945c11.613,0,21.028-29.692,21.028-66.323 V153.6H256V437.144z"/><path style="fill:#fff" d="M128,459.791c0,24.123,9.415,43.676,21.028,43.676h85.945c11.613,0,21.028-19.553,21.028-43.676 V273.067H128V459.791z"/><g><path style="fill:#a4c2f7" d="M153.6,437.144c0,36.631-3.08,66.323,8.533,66.323h179.2c11.613,0,17.067-29.692,17.067-66.323 V153.6H153.6V437.144z"/><path style="fill:#a4c2f7" d="M362.973,42.667H251.427c-11.613,0-21.027,2.266-21.027,5.062v100.809 c0,2.796,9.415,5.063,21.027,5.063h111.546c11.612,0,21.027-2.266,21.027-5.063V47.729C384,44.933,374.585,42.667,362.973,42.667z"/></g><linearGradient id="SVGID_1_" x1="-48.635" x2="-47.875" y1="651.938" y2="650.535" gradientTransform="matrix(204.8 0 0 -110.9333 10139.7979 72343.1406)" gradientUnits="userSpaceOnUse"><stop offset="0" style="stop-color:#d4e1f4"/><stop offset=".172" style="stop-color:#d4e1f4"/><stop offset=".2" style="stop-color:#d4e1f4"/><stop offset=".2" style="stop-color:#dae4f4"/><stop offset=".201" style="stop-color:#ebebf4"/><stop offset=".201" style="stop-color:#f6f1f4"/><stop offset=".202" style="stop-color:#fdf4f4"/><stop offset=".205" style="stop-color:#fff5f4"/><stop offset=".252" style="stop-color:#fff5f4"/><stop offset=".26" style="stop-color:#fff5f4"/><stop offset=".26" style="stop-color:#d4e1f4"/><stop offset=".397" style="stop-color:#d4e1f4"/><stop offset=".42" style="stop-color:#d4e1f4"/><stop offset=".42" style="stop-color:#dae4f4"/><stop offset=".421" style="stop-color:#ebebf4"/><stop offset=".421" style="stop-color:#f6f1f4"/><stop offset=".422" style="stop-color:#fdf4f4"/><stop offset=".425" style="stop-color:#fff5f4"/><stop offset=".489" style="stop-color:#fff5f4"/><stop offset=".5" style="stop-color:#fff5f4"/><stop offset=".5" style="stop-color:#f9f2f4"/><stop offset=".5" style="stop-color:#e8ebf4"/><stop offset=".5" style="stop-color:#dde5f4"/><stop offset=".5" style="stop-color:#d6e2f4"/><stop offset=".501" style="stop-color:#d4e1f4"/><stop offset=".706" style="stop-color:#d4e1f4"/><stop offset=".74" style="stop-color:#d4e1f4"/><stop offset=".741" style="stop-color:#fff5f4"/><stop offset=".835" style="stop-color:#fff5f4"/><stop offset=".85" style="stop-color:#fff5f4"/><stop offset=".851" style="stop-color:#d4e1f4"/></linearGradient><path style="fill:url(#SVGID_1_)" d="M337.373,42.667H174.627c-11.612,0-21.027,2.266-21.027,5.062v100.809 c0,2.796,9.415,5.063,21.027,5.063H358.4V47.729C358.4,44.933,348.985,42.667,337.373,42.667z"/><rect x="213.333" y="8.533" style="fill:#a4c2f7" width="85.333" height="34.133"/><g><path style="fill:#428dff" d="M362.975,512h-213.95c-16.317-0.017-29.541-13.241-29.558-29.558V63.692 c0.017-16.317,13.241-29.541,29.558-29.558h213.95c16.317,0.017,29.541,13.241,29.558,29.558v418.75 C392.516,498.759,379.292,511.983,362.975,512z M149.025,51.2c-6.897,0.005-12.486,5.595-12.492,12.492v418.75 c0.005,6.897,5.595,12.486,12.492,12.492h213.95c6.897-0.005,12.486-5.595,12.492-12.492V63.692 c-0.005-6.897-5.595-12.486-12.492-12.492H149.025z"/><path style="fill:#428dff" d="M298.667,51.2h-85.333c-2.264,0.001-4.435-0.897-6.035-2.498s-2.499-3.772-2.498-6.035V8.533 c-0.001-2.264,0.897-4.435,2.498-6.035S211.07-0.001,213.333,0h85.333c2.264-0.001,4.435,0.897,6.035,2.498 s2.499,3.772,2.498,6.035v34.133c0.001,2.264-0.897,4.435-2.498,6.035S300.93,51.201,298.667,51.2z M221.867,34.133h68.267V17.067 h-68.267V34.133z"/><path style="fill:#428dff" d="M384,162.133H128c-4.713,0-8.533-3.821-8.533-8.533s3.821-8.533,8.533-8.533h256 c4.713,0,8.533,3.82,8.533,8.533S388.713,162.133,384,162.133z"/><path style="fill:#428dff" d="M384,281.6H128c-4.713,0-8.533-3.82-8.533-8.533s3.821-8.533,8.533-8.533h256 c4.713,0,8.533,3.82,8.533,8.533S388.713,281.6,384,281.6z"/><path style="fill:#428dff" d="M384,401.067H128c-4.713,0-8.533-3.82-8.533-8.533S123.287,384,128,384h256 c4.713,0,8.533,3.82,8.533,8.533S388.713,401.067,384,401.067z"/></g></g></svg>