<svg xmlns="http://www.w3.org/2000/svg" xmlns:xlink="http://www.w3.org/1999/xlink" id="Capa_1" x="0" y="0" version="1.1" viewBox="0 0 512 512" style="enable-background:new 0 0 512 512" xml:space="preserve"><g><path style="fill:#a4c2f7" d="M273.067,8.533h98.944c16.047,0,29.056,13.009,29.056,29.056v436.821 c0,16.047-13.009,29.056-29.056,29.056h-98.944c-16.047,0-29.056-13.009-29.056-29.056V37.589 C244.011,21.542,257.02,8.533,273.067,8.533z"/><path style="fill:#fff" d="M148.523,8.533h98.944c16.047,0,29.056,13.009,29.056,29.056v436.821 c0,16.047-13.009,29.056-29.056,29.056h-98.944c-16.047,0-29.056-13.009-29.056-29.056V37.589 C119.467,21.542,132.475,8.533,148.523,8.533z"/><path style="fill:#e3e7f2" d="M174.123,8.533h163.755c16.047,0,29.056,13.009,29.056,29.056v436.821 c0,16.047-13.009,29.056-29.056,29.056H174.123c-16.047,0-29.056-13.009-29.056-29.056V37.589 C145.067,21.542,158.075,8.533,174.123,8.533z"/><linearGradient id="SVGID_1_" x1="-48.914" x2="-47.645" y1="652.505" y2="651.68" gradientTransform="matrix(221.8667 0 0 -341.3333 10967.5293 222811.4063)" gradientUnits="userSpaceOnUse"><stop offset="0" style="stop-color:#d4e1f4"/><stop offset=".172" style="stop-color:#d4e1f4"/><stop offset=".2" style="stop-color:#d4e1f4"/><stop offset=".2" style="stop-color:#dae4f4"/><stop offset=".201" style="stop-color:#ebebf4"/><stop offset=".201" style="stop-color:#f6f1f4"/><stop offset=".202" style="stop-color:#fdf4f4"/><stop offset=".205" style="stop-color:#fff5f4"/><stop offset=".252" style="stop-color:#fff5f4"/><stop offset=".26" style="stop-color:#fff5f4"/><stop offset=".26" style="stop-color:#d4e1f4"/><stop offset=".397" style="stop-color:#d4e1f4"/><stop offset=".42" style="stop-color:#d4e1f4"/><stop offset=".42" style="stop-color:#dae4f4"/><stop offset=".421" style="stop-color:#ebebf4"/><stop offset=".421" style="stop-color:#f6f1f4"/><stop offset=".422" style="stop-color:#fdf4f4"/><stop offset=".425" style="stop-color:#fff5f4"/><stop offset=".489" style="stop-color:#fff5f4"/><stop offset=".5" style="stop-color:#fff5f4"/><stop offset=".5" style="stop-color:#f9f2f4"/><stop offset=".5" style="stop-color:#e8ebf4"/><stop offset=".5" style="stop-color:#dde5f4"/><stop offset=".5" style="stop-color:#d6e2f4"/><stop offset=".501" style="stop-color:#d4e1f4"/><stop offset=".706" style="stop-color:#d4e1f4"/><stop offset=".74" style="stop-color:#d4e1f4"/><stop offset=".741" style="stop-color:#fff5f4"/><stop offset=".835" style="stop-color:#fff5f4"/><stop offset=".85" style="stop-color:#fff5f4"/><stop offset=".851" style="stop-color:#d4e1f4"/></linearGradient><rect x="145.067" y="59.733" style="fill:url(#SVGID_1_)" width="221.867" height="341.333"/><circle style="fill:#a4c2f7" cx="256" cy="452.267" r="25.6"/><path style="fill:#7facfa" d="M324.267,102.4H187.733c-18.851,0-34.133,15.282-34.133,34.133V204.8l34.133-34.133h136.533 c18.851,0,34.133-15.282,34.133-34.133l0,0C358.4,117.682,343.118,102.4,324.267,102.4z"/><g><path style="fill:#a4c2f7" d="M298.667,102.4H187.733c-18.851,0-34.133,15.282-34.133,34.133V204.8l34.133-34.133h110.933 c18.851,0,34.133-15.282,34.133-34.133l0,0C332.8,117.682,317.518,102.4,298.667,102.4z"/><path style="fill:#a4c2f7" d="M187.733,247.467h136.533c18.851,0,34.133,15.282,34.133,34.133v68.267l-34.133-34.133H187.733 c-18.851,0-34.133-15.282-34.133-34.133l0,0C153.6,262.749,168.882,247.467,187.733,247.467z"/></g><path style="fill:#e3e7f2" d="M298.667,247.467H187.733c-18.851,0-34.133,15.282-34.133,34.133 c0,18.851,15.282,34.133,34.133,34.133H332.8V281.6C332.8,262.749,317.518,247.467,298.667,247.467z"/><g><path style="fill:#428dff" d="M363.475,512h-214.95c-20.751-0.026-37.566-16.841-37.592-37.592V37.592 C110.959,16.841,127.774,0.026,148.525,0h214.95c20.751,0.026,37.566,16.841,37.592,37.592v436.817 C401.041,495.159,384.226,511.974,363.475,512L363.475,512z M148.525,17.067c-11.33,0.013-20.512,9.195-20.525,20.525v436.817 c0.013,11.33,9.195,20.512,20.525,20.525h214.95c11.33-0.013,20.512-9.195,20.525-20.525V37.592 c-0.013-11.33-9.195-20.512-20.525-20.525H148.525z"/><path style="fill:#428dff" d="M256,486.4c-18.851,0-34.133-15.282-34.133-34.133c0-18.851,15.282-34.133,34.133-34.133 s34.133,15.282,34.133,34.133C290.115,471.11,274.844,486.381,256,486.4L256,486.4z M256,435.2 c-9.426,0-17.067,7.641-17.067,17.067s7.641,17.067,17.067,17.067c9.426,0,17.067-7.641,17.067-17.067 C273.054,442.846,265.421,435.212,256,435.2L256,435.2z"/><path style="fill:#428dff" d="M392.533,409.6H119.467c-4.713,0-8.533-3.821-8.533-8.533s3.821-8.533,8.533-8.533h273.067 c4.713,0,8.533,3.82,8.533,8.533S397.246,409.6,392.533,409.6z"/><path style="fill:#428dff" d="M392.533,68.267H119.467c-4.713,0-8.533-3.821-8.533-8.533s3.821-8.533,8.533-8.533h273.067 c4.713,0,8.533,3.821,8.533,8.533S397.246,68.267,392.533,68.267z"/><path style="fill:#428dff" d="M256,42.667h-34.133c-4.713,0-8.533-3.821-8.533-8.533s3.821-8.533,8.533-8.533H256 c4.713,0,8.533,3.821,8.533,8.533S260.713,42.667,256,42.667z"/><path style="fill:#428dff" d="M290.133,42.667H281.6c-4.713,0-8.533-3.821-8.533-8.533s3.82-8.533,8.533-8.533h8.533 c4.713,0,8.533,3.821,8.533,8.533S294.846,42.667,290.133,42.667z"/><path style="fill:#428dff" d="M153.6,213.333c-4.713,0-8.533-3.821-8.533-8.533v-68.267 c0.028-23.553,19.114-42.639,42.667-42.667h136.533c23.564,0,42.667,19.103,42.667,42.667S347.831,179.2,324.267,179.2h-133 l-31.633,31.633C158.034,212.434,155.863,213.333,153.6,213.333L153.6,213.333z M187.733,110.933 c-14.132,0.015-25.585,11.468-25.6,25.6V184.2l19.567-19.567c1.6-1.601,3.77-2.5,6.033-2.5h136.533 c14.138,0,25.6-11.462,25.6-25.6s-11.462-25.6-25.6-25.6H187.733z"/><path style="fill:#428dff" d="M358.4,358.4c-2.263,0-4.433-0.9-6.033-2.5l-31.634-31.633h-133 c-23.564,0-42.667-19.103-42.667-42.667c0-23.564,19.103-42.667,42.667-42.667h136.533c23.553,0.028,42.639,19.114,42.667,42.667 v68.267C366.933,354.579,363.113,358.4,358.4,358.4L358.4,358.4z M187.733,256c-14.138,0-25.6,11.462-25.6,25.6 s11.462,25.6,25.6,25.6h136.533c2.263,0,4.434,0.899,6.033,2.5l19.567,19.566V281.6c-0.015-14.132-11.468-25.585-25.6-25.6 H187.733z"/></g></g></svg>