<svg xmlns="http://www.w3.org/2000/svg" xmlns:xlink="http://www.w3.org/1999/xlink" id="Capa_1" x="0" y="0" version="1.1" viewBox="0 0 512 512" style="enable-background:new 0 0 512 512" xml:space="preserve"><g><path style="fill:#fff" d="M332.8,358.4H230.4C173.846,358.4,128,312.554,128,256l0,0c0-56.554,45.846-102.4,102.4-102.4 h93.867V34.133H230.4C107.866,34.133,8.533,133.466,8.533,256l0,0c0,122.534,99.333,221.867,221.867,221.867h102.4V358.4z"/><g><rect x="230.4" y="358.4" style="fill:#7facfa" width="273.067" height="119.467"/><rect x="230.4" y="34.133" style="fill:#7facfa" width="273.067" height="119.467"/></g><linearGradient id="SVGID_1_" x1="-48.67" x2="-47.816" y1="652.614" y2="651.76" gradientTransform="matrix(443.7334 0 0 -443.7334 21728.0684 289653.0313)" gradientUnits="userSpaceOnUse"><stop offset="0" style="stop-color:#d4e1f4"/><stop offset=".172" style="stop-color:#d4e1f4"/><stop offset=".2" style="stop-color:#d4e1f4"/><stop offset=".2" style="stop-color:#dae4f4"/><stop offset=".201" style="stop-color:#ebebf4"/><stop offset=".201" style="stop-color:#f6f1f4"/><stop offset=".202" style="stop-color:#fdf4f4"/><stop offset=".205" style="stop-color:#fff5f4"/><stop offset=".252" style="stop-color:#fff5f4"/><stop offset=".26" style="stop-color:#fff5f4"/><stop offset=".26" style="stop-color:#d4e1f4"/><stop offset=".397" style="stop-color:#d4e1f4"/><stop offset=".42" style="stop-color:#d4e1f4"/><stop offset=".42" style="stop-color:#dae4f4"/><stop offset=".421" style="stop-color:#ebebf4"/><stop offset=".421" style="stop-color:#f6f1f4"/><stop offset=".422" style="stop-color:#fdf4f4"/><stop offset=".425" style="stop-color:#fff5f4"/><stop offset=".489" style="stop-color:#fff5f4"/><stop offset=".5" style="stop-color:#fff5f4"/><stop offset=".5" style="stop-color:#f9f2f4"/><stop offset=".5" style="stop-color:#e8ebf4"/><stop offset=".5" style="stop-color:#dde5f4"/><stop offset=".5" style="stop-color:#d6e2f4"/><stop offset=".501" style="stop-color:#d4e1f4"/><stop offset=".706" style="stop-color:#d4e1f4"/><stop offset=".74" style="stop-color:#d4e1f4"/><stop offset=".741" style="stop-color:#fff5f4"/><stop offset=".835" style="stop-color:#fff5f4"/><stop offset=".85" style="stop-color:#fff5f4"/><stop offset=".851" style="stop-color:#d4e1f4"/></linearGradient><path style="fill:url(#SVGID_1_)" d="M477.867,358.4H230.4C173.846,358.4,128,312.554,128,256l0,0 c0-56.554,45.846-102.4,102.4-102.4h247.467V34.133H256C133.466,34.133,34.133,133.466,34.133,256l0,0 c0,122.534,99.333,221.867,221.867,221.867h221.867V358.4z"/><g><rect x="392.533" y="34.133" style="fill:#a4c2f7" width="85.333" height="119.467"/><rect x="392.533" y="358.4" style="fill:#a4c2f7" width="85.333" height="119.467"/></g><g><rect x="358.4" y="34.133" style="fill:#e3e7f2" width="34.133" height="119.467"/><rect x="358.4" y="358.4" style="fill:#e3e7f2" width="34.133" height="119.467"/></g><g><path style="fill:#428dff" d="M503.467,486.4H230.4C103.154,486.4,0,383.246,0,256S103.154,25.6,230.4,25.6h273.067 c2.263-0.001,4.434,0.898,6.035,2.499c1.6,1.6,2.499,3.771,2.499,6.035V153.6c0.001,2.263-0.898,4.434-2.499,6.035 c-1.6,1.6-3.771,2.499-6.035,2.499H230.4c-51.841,0-93.867,42.026-93.867,93.867s42.026,93.867,93.867,93.867h273.067 c2.263-0.001,4.434,0.898,6.035,2.499c1.6,1.6,2.499,3.771,2.499,6.035v119.467c0.001,2.263-0.898,4.434-2.499,6.035 C507.901,485.502,505.73,486.401,503.467,486.4z M230.4,42.667C112.579,42.667,17.067,138.179,17.067,256 S112.579,469.333,230.4,469.333h264.533v-102.4H230.4c-61.267,0-110.933-49.667-110.933-110.933S169.133,145.067,230.4,145.067 h264.533v-102.4H230.4z"/><path style="fill:#428dff" d="M392.533,162.133H358.4c-2.263,0.001-4.434-0.898-6.035-2.499c-1.6-1.6-2.499-3.771-2.499-6.035 V34.133c-0.001-2.263,0.898-4.434,2.499-6.035c1.6-1.6,3.771-2.499,6.035-2.499h34.133c2.263-0.001,4.434,0.898,6.035,2.499 c1.6,1.6,2.499,3.771,2.499,6.035V153.6c0.001,2.263-0.898,4.434-2.499,6.035C396.968,161.235,394.797,162.134,392.533,162.133z M366.933,145.067H384v-102.4h-17.067V145.067z"/><path style="fill:#428dff" d="M392.533,486.4H358.4c-2.263,0.001-4.434-0.898-6.035-2.499c-1.6-1.6-2.499-3.771-2.499-6.035 V358.4c-0.001-2.263,0.898-4.434,2.499-6.035c1.6-1.6,3.771-2.499,6.035-2.499h34.133c2.263-0.001,4.434,0.898,6.035,2.499 c1.6,1.6,2.499,3.771,2.499,6.035v119.467c0.001,2.263-0.898,4.434-2.499,6.035C396.968,485.502,394.797,486.401,392.533,486.4z M366.933,469.333H384v-102.4h-17.067V469.333z"/></g></g></svg>