<svg xmlns="http://www.w3.org/2000/svg" xmlns:xlink="http://www.w3.org/1999/xlink" id="Capa_1" x="0" y="0" version="1.1" viewBox="0 0 512.111 512.111" style="enable-background:new 0 0 512.111 512.111" xml:space="preserve"><g><path style="fill:#a4c2f7" d="M347.978,361.903L207.44,502.45c-34.629-86.975,5.17-175.34,5.17-175.34L82.582,174.261 c0,0-42.369,6.8-72.661-17.245L157.28,9.658c15.178,21.279,21.317,47.7,17.076,73.49l152.491,129.736 c55.395-25.134,118.555-27.003,175.34-5.189L347.978,361.903z"/><linearGradient id="SVGID_1_" x1="-48.633" x2="-47.633" y1="652.204" y2="652.204" gradientTransform="matrix(463.6981 0 0 -473.4715 22561.1816 309065.5938)" gradientUnits="userSpaceOnUse"><stop offset="0" style="stop-color:#d4e1f4"/><stop offset=".172" style="stop-color:#d4e1f4"/><stop offset=".2" style="stop-color:#d4e1f4"/><stop offset=".2" style="stop-color:#dae4f4"/><stop offset=".201" style="stop-color:#ebebf4"/><stop offset=".201" style="stop-color:#f6f1f4"/><stop offset=".202" style="stop-color:#fdf4f4"/><stop offset=".205" style="stop-color:#fff5f4"/><stop offset=".252" style="stop-color:#fff5f4"/><stop offset=".26" style="stop-color:#fff5f4"/><stop offset=".26" style="stop-color:#d4e1f4"/><stop offset=".397" style="stop-color:#d4e1f4"/><stop offset=".42" style="stop-color:#d4e1f4"/><stop offset=".42" style="stop-color:#dae4f4"/><stop offset=".421" style="stop-color:#ebebf4"/><stop offset=".421" style="stop-color:#f6f1f4"/><stop offset=".422" style="stop-color:#fdf4f4"/><stop offset=".425" style="stop-color:#fff5f4"/><stop offset=".489" style="stop-color:#fff5f4"/><stop offset=".5" style="stop-color:#fff5f4"/><stop offset=".5" style="stop-color:#f9f2f4"/><stop offset=".5" style="stop-color:#e8ebf4"/><stop offset=".5" style="stop-color:#dde5f4"/><stop offset=".5" style="stop-color:#d6e2f4"/><stop offset=".501" style="stop-color:#d4e1f4"/><stop offset=".706" style="stop-color:#d4e1f4"/><stop offset=".74" style="stop-color:#d4e1f4"/><stop offset=".741" style="stop-color:#fff5f4"/><stop offset=".835" style="stop-color:#fff5f4"/><stop offset=".85" style="stop-color:#fff5f4"/><stop offset=".851" style="stop-color:#d4e1f4"/></linearGradient><path style="fill:url(#SVGID_1_)" d="M319.412,381.111L212.789,502.337c-34.629-86.975,0-173.887,0-173.887L87.204,173.884 c0,0-46.991,4.724-77.283-19.321L128.713,28.866c15.178,21.279,21.317,47.7,17.076,73.49L298.28,232.092 c55.395-25.134,118.555-27.003,175.34-5.189L319.412,381.111z"/><g><path style="fill:#428dff" d="M207.44,512.111c-0.656,0-1.31-0.067-1.953-0.198c-3.18-0.657-5.818-2.869-7.019-5.887 c-31.038-77.934-5.425-155.594,2.962-177.142L78.544,184.432c-26.462,2.658-52.987-4.396-74.632-19.849 c-2.154-1.714-3.476-4.266-3.633-7.014c-0.157-2.749,0.866-5.434,2.811-7.382L150.45,2.828c1.961-1.905,4.617-2.924,7.349-2.821 c2.74,0.151,5.288,1.457,7.009,3.594c15.82,21.848,22.897,48.822,19.84,75.623l143.736,122.283 c56.515-23.957,120.139-24.955,177.377-2.783c3.02,1.201,5.232,3.841,5.888,7.023s-0.334,6.482-2.633,8.778L214.27,509.281 C212.459,511.093,210.002,512.111,207.44,512.111z M82.563,164.601c2.837,0,5.533,1.241,7.377,3.396l130.029,152.849 c2.416,2.843,2.981,6.823,1.453,10.226c-0.358,0.792-33.491,76.359-9.953,153.689l129.679-129.689l0,0l143.415-143.415 c-50.628-15.191-105.026-11.706-153.302,9.821c-3.487,1.761-7.687,1.274-10.679-1.236L168.091,90.507 c-2.58-2.199-3.819-5.59-3.264-8.934c3.085-19.342-0.182-39.162-9.311-56.491L25.1,155.498 c17.375,8.415,36.815,11.619,55.972,9.226C81.565,164.641,82.063,164.6,82.563,164.601z"/><path style="fill:#428dff" d="M492.94,502.45c-2.563,0.003-5.021-1.016-6.83-2.83L348.185,361.696 c-3.761-3.774-3.756-9.881,0.012-13.649c3.768-3.768,9.874-3.773,13.649-0.012L499.77,485.96 c2.762,2.763,3.588,6.917,2.093,10.526C500.368,500.096,496.847,502.449,492.94,502.45L492.94,502.45z"/></g></g></svg>