<svg xmlns="http://www.w3.org/2000/svg" xmlns:svg="http://www.w3.org/2000/svg" xmlns:xlink="http://www.w3.org/1999/xlink" id="katman_1" width="508.2" height="508.3" x="0" y="0" version="1.0" viewBox="0 0 508.2 508.3" xml:space="preserve"><style id="style59" type="text/css">.st0{fill:#8247e5}.st2{fill:#fff}</style><path id="path61" d="m 254.00007,0 v 0 c 140.4,0 254.2,113.8 254.2,254.2 v 0 c 0,140.4 -113.8,254.1 -254.1,254.1 v 0 C 113.70007,508.3 6.585463e-5,394.5 6.585463e-5,254.2 v 0 C -0.09993415,113.8 113.70007,0 254.00007,0 Z" class="st0"/><g id="g73" transform="translate(-145.79993,-45.4)"><defs id="defs64"><rect id="SVGID_1_" width="333.1" height="291.9" x="231.5" y="155.3"/></defs><clipPath id="SVGID_00000119824040907289936360000005545950198423505064_"><use xlink:href="#SVGID_1_" style="overflow:visible" id="use66"/></clipPath><g id="g71" clip-path="url(#SVGID_00000119824040907289936360000005545950198423505064_)"><path id="path69" d="m 483.1,244.2 c -6.1,-3.5 -13.9,-3.5 -20.8,0 L 413.7,273 380.7,291.3 333,320 c -6.1,3.5 -13.9,3.5 -20.8,0 l -37.3,-22.7 c -6.1,-3.5 -10.4,-10.5 -10.4,-18.3 v -43.6 c 0,-7 3.5,-13.9 10.4,-18.3 l 37.3,-21.8 c 6.1,-3.5 13.9,-3.5 20.8,0 l 37.3,22.7 c 6.1,3.5 10.4,10.5 10.4,18.3 v 28.8 l 33,-19.2 v -29.6 c 0,-7 -3.5,-13.9 -10.4,-18.3 l -69.4,-41 c -6.1,-3.5 -13.9,-3.5 -20.8,0 L 242,198.9 c -6.9,3.5 -10.4,10.5 -10.4,17.4 v 81.9 c 0,7 3.5,13.9 10.4,18.3 l 70.3,41 c 6.1,3.5 13.9,3.5 20.8,0 l 47.7,-27.9 33,-19.2 47.7,-27.9 c 6.1,-3.5 13.9,-3.5 20.8,0 l 37.3,21.8 c 6.1,3.5 10.4,10.5 10.4,18.3 v 43.6 c 0,7 -3.5,13.9 -10.4,18.3 l -36.4,21.8 c -6.1,3.5 -13.9,3.5 -20.8,0 L 425,384.5 C 418.9,381 414.6,374 414.6,366.2 v -27.9 l -33,19.2 v 28.8 c 0,7 3.5,13.9 10.4,18.3 l 70.3,41 c 6.1,3.5 13.9,3.5 20.8,0 l 70.3,-41 c 6.1,-3.5 10.4,-10.5 10.4,-18.3 v -82.8 c 0,-7 -3.5,-13.9 -10.4,-18.3 z" class="st2"/></g></g></svg>